<svg id="svg" xmlns="http://www.w3.org/2000/svg" xmlns:xlink="http://www.w3.org/1999/xlink" width="400" height="330.79584775086505" viewBox="0, 0, 400,330.79584775086505"><g id="svgg"><path id="path0" d="M122.911 8.681 C 116.788 9.866,112.568 13.871,111.499 19.513 C 111.286 20.635,111.166 38.416,111.166 68.975 C 111.166 122.156,111.300 118.902,108.916 123.657 C 108.392 124.703,106.035 129.355,103.679 133.995 C 101.323 138.635,98.445 144.442,97.284 146.898 C 94.684 152.401,91.070 159.690,86.949 167.742 C 81.803 177.796,80.986 180.659,82.238 184.254 C 83.682 188.401,86.443 191.062,90.168 191.897 C 91.947 192.295,294.510 192.426,296.692 192.030 C 301.437 191.169,305.439 186.363,305.466 181.495 C 305.485 177.909,304.525 175.629,294.802 156.176 C 284.239 135.044,277.149 120.645,276.616 119.246 C 276.347 118.539,276.286 116.614,276.418 112.960 C 276.912 99.239,276.948 26.979,276.462 23.314 C 275.311 14.626,272.209 10.495,265.509 8.728 C 264.031 8.338,124.919 8.292,122.911 8.681 M255.914 24.670 C 261.260 25.266,261.042 23.526,261.042 65.696 C 261.042 107.089,261.179 105.838,256.576 106.691 C 253.415 107.277,130.928 106.871,129.694 106.270 C 127.039 104.979,127.213 107.821,127.213 65.674 C 127.213 21.074,126.644 25.224,132.837 24.589 C 135.957 24.269,253.007 24.346,255.914 24.670 M133.409 128.417 C 136.517 129.106,138.059 132.525,136.282 134.784 C 133.894 137.820,122.133 137.731,120.321 134.664 C 117.352 129.637,124.193 126.372,133.409 128.417 M154.974 128.431 C 158.821 129.396,159.425 133.930,156.005 136.171 C 153.483 137.823,144.085 136.887,142.751 134.850 C 139.561 129.982,146.541 126.315,154.974 128.431 M177.498 128.516 C 180.499 129.375,181.290 132.974,179.015 135.414 L 177.715 136.807 172.315 136.799 C 167.977 136.792,166.720 136.684,165.921 136.253 C 162.722 134.526,162.581 130.103,165.685 128.807 C 168.193 127.758,174.325 127.607,177.498 128.516 M261.620 128.041 C 267.450 128.798,269.396 133.514,264.961 136.139 C 263.025 137.285,254.687 137.122,252.844 135.903 C 248.403 132.963,250.932 128.537,257.403 127.924 C 258.040 127.864,258.710 127.796,258.892 127.772 C 259.074 127.749,260.301 127.869,261.620 128.041 M199.657 128.714 C 202.882 130.306,202.836 134.789,199.579 136.238 C 197.613 137.114,189.821 137.044,188.255 136.136 C 186.965 135.389,186.110 133.880,185.772 131.756 L 185.548 130.345 187.150 129.635 C 190.848 127.995,197.245 127.524,199.657 128.714 M220.302 128.709 C 221.872 129.421,224.979 131.872,224.979 132.397 C 224.979 132.895,222.332 135.249,220.844 136.074 C 218.937 137.131,211.223 137.172,209.429 136.135 C 206.240 134.291,206.657 129.751,210.131 128.494 C 212.056 127.798,218.599 127.936,220.302 128.709 M242.108 128.544 C 244.796 129.342,245.823 130.400,245.823 132.370 C 245.823 137.882,234.103 138.826,229.152 133.713 L 227.866 132.385 229.428 130.957 C 232.635 128.026,237.344 127.130,242.108 128.544 M128.024 146.381 C 132.916 147.256,133.777 152.256,129.263 153.574 C 127.086 154.209,117.612 154.097,116.034 153.417 C 113.757 152.436,113.175 149.226,114.962 147.502 C 116.425 146.091,123.166 145.513,128.024 146.381 M149.380 146.356 C 158.628 148.348,155.750 154.061,145.549 153.960 C 141.355 153.918,140.796 153.745,137.900 151.583 C 135.787 150.005,135.858 149.500,138.390 148.084 C 142.076 146.023,145.401 145.500,149.380 146.356 M173.172 146.402 C 176.998 147.212,179.555 149.662,178.171 151.191 C 175.239 154.432,167.618 155.027,162.447 152.419 C 159.451 150.908,159.288 150.467,161.121 148.825 C 164.174 146.092,168.039 145.314,173.172 146.402 M196.499 146.274 C 200.063 146.876,204.056 149.541,203.267 150.791 C 202.689 151.708,198.725 153.517,196.479 153.889 C 191.342 154.741,182.892 151.787,184.595 149.735 C 186.931 146.920,191.854 145.489,196.499 146.274 M220.570 146.367 C 224.008 147.105,227.505 149.607,226.756 150.794 C 225.159 153.325,217.070 154.895,212.479 153.564 C 210.782 153.072,207.990 150.555,208.161 149.671 C 208.636 147.203,215.702 145.322,220.570 146.367 M244.548 146.356 C 248.453 147.275,250.505 149.004,249.698 150.695 C 247.731 154.821,237.088 155.352,232.564 151.550 L 231.431 150.598 232.038 149.455 C 233.463 146.771,239.722 145.220,244.548 146.356 M269.067 146.301 C 272.764 146.794,273.945 147.695,273.945 150.022 C 273.945 153.239,272.236 153.983,264.847 153.983 C 258.765 153.983,257.356 153.665,256.386 152.075 C 253.642 147.575,259.296 145.000,269.067 146.301 M120.518 165.348 C 124.983 167.757,125.355 168.684,122.914 171.321 C 120.245 174.204,116.399 175.047,109.790 174.199 C 102.395 173.250,100.048 168.235,105.656 165.366 C 108.666 163.826,117.676 163.815,120.518 165.348 M146.567 164.824 C 150.570 166.050,151.118 171.517,147.432 173.452 C 145.434 174.501,134.890 174.559,132.837 173.532 C 129.556 171.892,129.536 166.787,132.804 165.027 C 134.441 164.144,143.893 164.006,146.567 164.824 M254.260 164.817 C 255.744 165.198,258.726 167.991,258.726 168.999 C 258.726 173.054,251.467 175.410,243.051 174.086 C 235.128 172.840,235.450 165.432,243.469 164.427 C 246.048 164.103,252.373 164.332,254.260 164.817 M281.808 165.111 C 285.262 166.611,285.148 172.075,281.630 173.616 C 279.531 174.535,268.930 174.431,267.142 173.474 C 264.070 171.830,263.893 167.156,266.829 165.232 C 268.706 164.002,279.064 163.919,281.808 165.111 M228.789 165.426 C 231.411 167.877,230.988 172.608,228.046 173.727 C 226.291 174.394,160.814 174.295,159.587 173.624 C 156.135 171.734,156.635 165.895,160.345 164.770 C 160.865 164.613,176.278 164.510,194.597 164.541 L 227.904 164.599 228.789 165.426 M222.059 206.556 C 221.664 206.977,221.340 207.444,221.340 207.593 C 221.340 207.742,221.642 207.480,222.011 207.011 C 222.498 206.392,223.065 206.123,224.079 206.032 L 225.476 205.906 224.127 205.848 C 223.098 205.804,222.608 205.971,222.059 206.556 M352.605 206.032 C 353.379 206.102,354.644 206.102,355.418 206.032 C 356.191 205.963,355.558 205.906,354.012 205.906 C 352.465 205.906,351.832 205.963,352.605 206.032 M228.371 206.680 C 228.689 206.763,229.210 206.763,229.529 206.680 C 229.847 206.596,229.586 206.528,228.950 206.528 C 228.313 206.528,228.052 206.596,228.371 206.680 M230.744 214.392 C 230.744 218.304,230.792 219.905,230.851 217.949 C 230.909 215.993,230.909 212.792,230.851 210.835 C 230.792 208.879,230.744 210.480,230.744 214.392 M221.009 215.675 C 221.009 224.788,221.629 223.941,214.865 224.070 L 209.595 224.170 214.947 224.244 C 219.440 224.306,220.384 224.234,220.820 223.798 C 221.322 223.295,221.665 208.106,221.175 208.106 C 221.084 208.106,221.009 211.512,221.009 215.675 M348.878 247.974 C 348.878 268.718,348.918 277.253,348.966 266.940 C 349.015 256.628,349.015 239.655,348.966 229.223 C 348.918 218.791,348.878 227.229,348.878 247.974 M359.123 222.333 C 359.123 228.428,359.167 230.922,359.222 227.874 C 359.277 224.826,359.277 219.839,359.222 216.791 C 359.167 213.743,359.123 216.237,359.123 222.333 M147.395 212.909 C 147.758 213.206,148.354 213.594,148.718 213.773 L 149.380 214.098 148.718 213.559 C 148.354 213.263,147.758 212.874,147.395 212.695 L 146.733 212.370 147.395 212.909 M151.199 215.372 C 152.820 216.730,154.154 217.560,152.854 216.401 C 152.217 215.833,151.398 215.213,151.034 215.023 C 150.584 214.789,150.637 214.900,151.199 215.372 M154.631 217.936 C 154.973 218.341,155.160 218.904,155.048 219.194 C 154.931 219.498,154.984 219.635,155.173 219.518 C 155.714 219.184,155.545 218.503,154.756 217.835 L 154.012 217.204 154.631 217.936 M153.453 221.754 C 151.360 224.920,151.122 225.310,151.280 225.310 C 151.418 225.310,152.324 224.006,154.324 220.926 C 154.649 220.426,154.844 220.017,154.758 220.017 C 154.672 220.017,154.085 220.798,153.453 221.754 M25.899 222.245 C 26.769 222.314,28.109 222.313,28.877 222.243 C 29.645 222.174,28.933 222.118,27.295 222.119 C 25.658 222.120,25.029 222.177,25.899 222.245 M141.295 223.586 C 141.050 224.443,140.618 225.412,140.336 225.738 C 139.869 226.276,139.872 226.312,140.360 226.125 C 140.867 225.930,142.198 222.484,141.886 222.173 C 141.806 222.093,141.541 222.729,141.295 223.586 M22.333 222.663 C 21.489 223.026,22.359 223.026,23.490 222.663 C 24.155 222.450,24.188 222.397,23.656 222.389 C 23.292 222.383,22.696 222.507,22.333 222.663 M30.797 222.451 C 30.873 222.516,31.530 222.661,32.258 222.773 C 33.159 222.911,33.423 222.875,33.085 222.659 C 32.633 222.371,30.476 222.175,30.797 222.451 M33.774 223.113 C 33.850 223.178,34.359 223.332,34.905 223.454 C 35.630 223.616,35.764 223.585,35.401 223.340 C 34.954 223.038,33.442 222.827,33.774 223.113 M231.554 224.069 C 231.932 224.552,232.486 224.637,234.863 224.581 L 237.717 224.514 234.921 224.401 C 233.384 224.339,231.895 224.109,231.613 223.890 C 231.162 223.539,231.155 223.561,231.554 224.069 M128.611 224.226 C 129.199 224.299,130.241 224.300,130.927 224.228 C 131.614 224.157,131.133 224.097,129.859 224.095 C 128.586 224.094,128.024 224.152,128.611 224.226 M238.792 224.220 C 239.202 224.299,239.872 224.299,240.281 224.220 C 240.691 224.141,240.356 224.077,239.537 224.077 C 238.718 224.077,238.383 224.141,238.792 224.220 M264.272 224.221 C 264.683 224.300,265.279 224.297,265.595 224.214 C 265.912 224.131,265.575 224.067,264.847 224.070 C 264.119 224.074,263.860 224.142,264.272 224.221 M15.912 225.480 C 14.928 226.090,13.812 226.922,13.431 227.328 C 12.739 228.066,12.740 228.066,13.730 227.311 C 14.276 226.894,15.542 226.054,16.543 225.443 C 17.543 224.832,18.213 224.341,18.031 224.351 C 17.849 224.362,16.896 224.870,15.912 225.480 M74.938 224.664 C 74.477 224.873,74.677 224.903,75.600 224.762 C 76.328 224.651,76.985 224.506,77.061 224.439 C 77.345 224.189,75.573 224.376,74.938 224.664 M80.425 224.436 C 80.500 224.500,81.084 224.649,81.720 224.766 C 82.535 224.915,82.731 224.882,82.382 224.653 C 81.934 224.359,80.096 224.155,80.425 224.436 M124.731 224.644 C 124.393 224.860,124.657 224.896,125.558 224.758 C 127.194 224.507,127.472 224.316,126.192 224.323 C 125.662 224.325,125.004 224.470,124.731 224.644 M132.368 224.437 C 132.444 224.503,133.176 224.645,133.995 224.753 C 134.989 224.885,135.264 224.853,134.822 224.657 C 134.190 224.377,132.081 224.188,132.368 224.437 M181.472 224.640 C 181.073 224.807,181.597 224.845,182.796 224.737 C 183.888 224.638,184.843 224.503,184.919 224.437 C 185.201 224.192,182.109 224.374,181.472 224.640 M185.305 224.436 C 185.380 224.502,186.187 224.641,187.097 224.746 C 188.161 224.869,188.515 224.835,188.089 224.651 C 187.457 224.377,185.018 224.189,185.305 224.436 M261.787 224.546 C 262.105 224.629,262.626 224.629,262.945 224.546 C 263.263 224.462,263.002 224.394,262.366 224.394 C 261.729 224.394,261.468 224.462,261.787 224.546 M317.197 224.556 C 317.784 224.629,318.826 224.631,319.513 224.559 C 320.199 224.487,319.719 224.428,318.445 224.426 C 317.171 224.425,316.610 224.483,317.197 224.556 M240.959 226.303 C 240.959 227.304,241.021 227.713,241.097 227.213 C 241.173 226.712,241.173 225.893,241.097 225.393 C 241.021 224.892,240.959 225.302,240.959 226.303 M83.992 225.489 C 84.604 225.754,85.199 225.967,85.315 225.960 C 85.746 225.936,83.851 225.003,83.375 225.004 C 83.102 225.005,83.379 225.223,83.992 225.489 M189.909 225.476 C 191.420 226.057,192.014 226.049,190.736 225.464 C 190.190 225.214,189.520 225.014,189.247 225.019 C 188.974 225.025,189.272 225.230,189.909 225.476 M40.488 225.720 C 42.973 227.393,43.452 227.662,43.024 227.146 C 42.768 226.837,41.953 226.297,41.213 225.944 C 40.473 225.591,40.147 225.491,40.488 225.720 M121.754 225.806 C 121.299 226.067,121.075 226.279,121.257 226.279 C 121.439 226.279,121.960 226.067,122.415 225.806 C 122.870 225.546,123.093 225.334,122.911 225.334 C 122.730 225.334,122.208 225.546,121.754 225.806 M275.269 225.501 C 275.269 225.724,276.987 226.349,277.151 226.185 C 277.226 226.110,276.833 225.890,276.278 225.696 C 275.723 225.503,275.269 225.415,275.269 225.501 M149.968 227.047 C 148.680 228.960,148.353 229.616,149.185 228.619 C 149.971 227.678,151.244 225.641,151.046 225.641 C 150.974 225.641,150.489 226.274,149.968 227.047 M68.983 226.615 C 68.255 226.960,67.808 227.243,67.990 227.244 C 68.441 227.247,71.052 226.025,70.637 226.005 C 70.455 225.996,69.711 226.271,68.983 226.615 M85.718 226.095 C 86.059 226.400,88.007 227.295,88.007 227.147 C 88.007 226.956,86.172 225.972,85.817 225.972 C 85.687 225.972,85.642 226.027,85.718 226.095 M309.347 226.468 C 308.266 227.086,308.644 227.093,310.053 226.481 C 310.665 226.215,310.943 225.997,310.670 225.997 C 310.397 225.996,309.801 226.208,309.347 226.468 M119.438 226.994 C 118.888 227.443,118.833 227.556,119.272 227.329 C 120.351 226.771,120.950 226.313,120.596 226.315 C 120.414 226.316,119.892 226.622,119.438 226.994 M277.585 226.405 C 277.585 226.496,278.292 226.977,279.156 227.474 C 280.021 227.971,281.100 228.688,281.555 229.068 L 282.382 229.758 281.555 228.898 C 280.751 228.061,277.585 226.074,277.585 226.405 M328.674 227.144 C 329.751 227.591,330.685 227.903,330.750 227.839 C 330.904 227.685,327.567 226.299,327.086 226.317 C 326.883 226.324,327.597 226.696,328.674 227.144 M208.536 228.619 C 208.536 229.620,208.598 230.029,208.674 229.529 C 208.750 229.028,208.750 228.209,208.674 227.709 C 208.598 227.208,208.536 227.618,208.536 228.619 M253.236 228.244 C 252.161 228.948,250.761 230.098,250.124 230.799 C 249.077 231.951,249.125 231.930,250.625 230.571 C 251.538 229.745,252.989 228.656,253.851 228.151 C 255.224 227.346,255.691 226.964,255.304 226.964 C 255.241 226.964,254.310 227.540,253.236 228.244 M66.419 227.815 C 65.182 228.486,65.257 228.766,66.501 228.122 C 67.047 227.840,67.494 227.539,67.494 227.452 C 67.494 227.239,67.458 227.251,66.419 227.815 M170.980 228.781 C 168.678 230.324,166.510 232.373,165.370 234.078 L 164.707 235.070 165.423 234.243 C 167.618 231.709,169.153 230.322,171.341 228.891 C 172.684 228.013,173.650 227.295,173.488 227.295 C 173.326 227.295,172.198 227.964,170.980 228.781 M305.832 228.431 C 303.029 230.318,298.394 236.167,298.436 237.763 C 298.440 237.920,298.948 237.112,299.565 235.967 C 300.954 233.390,303.414 230.474,305.329 229.135 C 308.382 227.001,308.777 226.448,305.832 228.431 M90.488 228.674 C 91.034 229.088,92.312 230.176,93.327 231.091 C 95.032 232.626,95.014 232.597,93.101 230.710 C 91.960 229.585,90.682 228.497,90.261 228.293 C 89.735 228.037,89.806 228.156,90.488 228.674 M377.833 228.264 C 377.264 228.429,377.626 228.504,378.991 228.504 C 380.356 228.504,380.718 228.429,380.149 228.264 C 379.694 228.131,379.173 228.023,378.991 228.023 C 378.809 228.023,378.288 228.131,377.833 228.264 M115.125 230.521 L 113.317 232.423 115.219 230.615 C 116.987 228.935,117.273 228.619,117.028 228.619 C 116.976 228.619,116.120 229.475,115.125 230.521 M332.837 229.003 C 334.430 230.600,337.165 232.918,336.146 231.807 C 335.509 231.113,334.392 230.086,333.664 229.525 C 332.936 228.964,332.564 228.729,332.837 229.003 M381.803 228.989 C 382.258 229.169,383.083 229.718,383.637 230.208 C 384.191 230.699,384.085 230.542,383.402 229.859 C 382.719 229.177,381.893 228.628,381.568 228.640 C 381.139 228.655,381.204 228.751,381.803 228.989 M45.653 230.110 C 46.970 231.697,47.081 231.799,46.721 231.096 C 46.534 230.730,46.032 230.136,45.606 229.775 C 44.858 229.143,44.859 229.155,45.653 230.110 M282.548 229.715 C 282.548 229.772,283.031 230.256,283.623 230.790 L 284.698 231.762 283.726 230.687 C 282.821 229.684,282.548 229.459,282.548 229.715 M372.705 230.467 L 371.712 231.320 372.787 230.609 C 373.379 230.217,373.863 229.833,373.863 229.754 C 373.863 229.506,373.723 229.593,372.705 230.467 M60.867 232.175 L 58.726 234.409 60.959 232.268 C 62.188 231.090,63.193 230.085,63.193 230.034 C 63.193 229.791,62.856 230.101,60.867 232.175 M241.575 231.183 L 241.522 232.589 236.086 232.589 C 231.586 232.589,230.562 232.678,230.131 233.109 C 229.666 233.574,229.620 236.337,229.692 259.329 L 229.773 285.029 229.859 259.419 C 229.921 241.172,230.052 233.682,230.316 233.365 C 230.597 233.025,231.970 232.920,236.114 232.920 C 242.072 232.920,242.016 232.940,241.764 230.883 C 241.641 229.885,241.623 229.915,241.575 231.183 M9.596 231.099 C 9.169 231.553,8.883 231.980,8.959 232.048 C 9.036 232.115,9.445 231.744,9.868 231.222 C 10.815 230.054,10.648 229.978,9.596 231.099 M369.550 233.168 L 367.742 235.070 369.644 233.262 C 371.412 231.582,371.698 231.266,371.453 231.266 C 371.401 231.266,370.545 232.122,369.550 233.168 M200.822 232.426 C 202.140 234.013,202.251 234.115,201.891 233.412 C 201.703 233.046,201.201 232.452,200.775 232.091 C 200.027 231.459,200.029 231.471,200.822 232.426 M385.277 232.589 C 385.559 233.135,385.865 233.581,385.956 233.581 C 386.047 233.581,385.890 233.135,385.608 232.589 C 385.326 232.043,385.020 231.596,384.929 231.596 C 384.838 231.596,384.995 232.043,385.277 232.589 M24.927 232.180 C 24.716 232.314,25.930 232.423,27.624 232.423 C 29.318 232.423,30.636 232.312,30.552 232.175 C 30.355 231.856,25.432 231.860,24.927 232.180 M285.339 233.029 C 285.849 233.697,286.332 234.243,286.414 234.243 C 286.644 234.243,285.212 232.308,284.788 232.046 C 284.582 231.918,284.830 232.361,285.339 233.029 M149.057 233.107 C 149.364 233.665,149.910 234.484,150.270 234.927 L 150.924 235.732 150.364 234.718 C 150.057 234.160,149.511 233.341,149.151 232.898 L 148.497 232.093 149.057 233.107 M248.406 232.837 C 247.823 233.516,247.386 234.243,247.561 234.243 C 247.628 234.243,248.014 233.797,248.417 233.251 C 249.215 232.172,249.207 231.904,248.406 232.837 M211.249 232.814 C 216.095 233.053,220.935 233.064,220.793 232.837 C 220.709 232.701,218.080 232.618,214.952 232.653 C 211.823 232.688,210.157 232.760,211.249 232.814 M129.032 233.251 C 127.920 233.607,129.122 233.607,130.521 233.251 C 131.413 233.024,131.429 232.997,130.687 232.992 C 130.232 232.989,129.487 233.105,129.032 233.251 M135.153 233.251 C 135.517 233.407,136.038 233.535,136.311 233.535 C 136.624 233.535,136.563 233.430,136.146 233.251 C 135.782 233.094,135.261 232.966,134.988 232.966 C 134.675 232.966,134.736 233.071,135.153 233.251 M96.014 234.552 C 96.426 235.268,96.820 235.796,96.889 235.727 C 97.032 235.584,95.642 233.251,95.414 233.251 C 95.332 233.251,95.603 233.836,96.014 234.552 M126.716 234.078 C 126.261 234.338,126.038 234.551,126.220 234.551 C 126.402 234.551,126.923 234.338,127.378 234.078 C 127.833 233.818,128.056 233.605,127.874 233.605 C 127.692 233.605,127.171 233.818,126.716 234.078 M221.167 259.553 C 221.167 273.929,221.207 279.761,221.257 272.515 C 221.307 265.268,221.307 253.506,221.257 246.377 C 221.207 239.249,221.167 245.178,221.167 259.553 M265.012 233.914 C 264.516 234.074,265.045 234.108,266.336 234.000 C 267.519 233.901,268.548 233.766,268.624 233.701 C 268.891 233.470,265.829 233.651,265.012 233.914 M76.681 234.152 C 77.276 234.226,78.169 234.224,78.666 234.149 C 79.163 234.073,78.677 234.013,77.585 234.015 C 76.493 234.017,76.086 234.078,76.681 234.152 M183.044 234.149 C 183.544 234.225,184.363 234.225,184.864 234.149 C 185.364 234.073,184.955 234.011,183.954 234.011 C 182.953 234.011,182.543 234.073,183.044 234.149 M203.046 236.054 C 203.534 237.049,203.989 237.809,204.057 237.741 C 204.205 237.592,202.537 234.243,202.314 234.243 C 202.228 234.243,202.557 235.058,203.046 236.054 M358.746 236.063 C 358.748 237.155,358.810 237.561,358.883 236.967 C 358.957 236.372,358.955 235.479,358.880 234.982 C 358.804 234.485,358.744 234.971,358.746 236.063 M72.575 235.210 C 72.004 235.559,71.420 236.042,71.278 236.284 C 71.125 236.545,71.279 236.505,71.655 236.187 C 72.005 235.891,72.738 235.413,73.284 235.125 C 73.830 234.837,74.127 234.595,73.945 234.589 C 73.763 234.582,73.147 234.862,72.575 235.210 M246.468 235.929 C 246.088 236.675,245.834 237.342,245.903 237.411 C 245.972 237.480,246.353 236.870,246.749 236.056 C 247.651 234.200,247.407 234.090,246.468 235.929 M272.319 234.680 C 272.845 235.083,274.938 236.175,274.938 236.047 C 274.938 235.826,272.856 234.577,272.484 234.575 C 272.317 234.575,272.243 234.622,272.319 234.680 M321.340 234.802 C 321.658 234.885,322.179 234.885,322.498 234.802 C 322.816 234.719,322.556 234.651,321.919 234.651 C 321.282 234.651,321.022 234.719,321.340 234.802 M163.403 237.417 C 162.859 238.617,162.459 239.715,162.514 239.857 C 162.569 239.999,163.080 239.017,163.651 237.675 C 164.938 234.647,164.749 234.449,163.403 237.417 M258.974 235.756 C 257.692 236.452,257.837 236.692,259.140 236.029 C 260.387 235.395,260.608 235.231,260.187 235.249 C 260.021 235.256,259.475 235.484,258.974 235.756 M176.745 237.152 C 175.850 238.024,174.938 239.104,174.720 239.551 C 174.409 240.187,174.484 240.148,175.068 239.371 C 175.477 238.825,176.487 237.746,177.312 236.973 C 178.136 236.199,178.713 235.567,178.592 235.567 C 178.472 235.567,177.641 236.280,176.745 237.152 M309.897 237.529 C 308.781 238.608,307.939 239.543,308.028 239.606 C 308.116 239.670,309.106 238.787,310.228 237.644 C 312.812 235.012,312.584 234.932,309.897 237.529 M325.889 236.122 C 326.929 236.845,329.887 239.815,330.443 240.695 C 330.673 241.059,330.649 240.905,330.389 240.354 C 329.856 239.221,327.091 236.517,325.869 235.933 L 325.062 235.547 325.889 236.122 M86.035 237.389 C 86.665 238.119,87.447 239.086,87.773 239.540 C 88.345 240.335,88.345 240.326,87.778 239.279 C 87.455 238.682,86.673 237.714,86.041 237.128 L 84.891 236.063 86.035 237.389 M120.778 237.865 C 119.901 238.765,119.025 239.956,118.831 240.512 C 118.350 241.893,118.655 241.790,119.248 240.371 C 119.512 239.738,120.421 238.547,121.268 237.724 C 122.114 236.901,122.709 236.228,122.590 236.228 C 122.470 236.228,121.655 236.965,120.778 237.865 M276.633 237.574 C 277.475 238.381,278.409 239.524,278.710 240.116 C 279.010 240.707,279.332 241.191,279.425 241.191 C 280.076 241.191,277.531 237.789,276.179 236.853 C 275.382 236.300,275.499 236.487,276.633 237.574 M69.810 237.552 C 69.421 238.098,69.177 238.544,69.268 238.544 C 69.359 238.544,69.752 238.098,70.141 237.552 C 70.529 237.006,70.773 236.559,70.682 236.559 C 70.591 236.559,70.198 237.006,69.810 237.552 M256.213 237.965 C 255.006 239.243,253.486 241.153,254.304 240.364 C 255.185 239.514,257.808 236.559,257.682 236.559 C 257.604 236.559,256.943 237.192,256.213 237.965 M365.664 237.965 C 364.456 239.749,364.195 240.199,364.367 240.199 C 364.443 240.199,365.049 239.380,365.713 238.379 C 366.378 237.378,366.853 236.559,366.769 236.559 C 366.685 236.559,366.187 237.192,365.664 237.965 M387.433 237.745 C 387.435 238.093,387.589 238.602,387.774 238.875 C 388.019 239.238,388.050 239.104,387.887 238.379 C 387.615 237.162,387.426 236.898,387.433 237.745 M375.802 238.233 L 375.021 238.914 375.932 238.359 C 376.711 237.885,376.928 237.870,377.421 238.257 C 377.944 238.667,377.956 238.655,377.544 238.131 C 376.964 237.390,376.754 237.403,375.802 238.233 M194.319 239.660 C 194.896 240.642,195.423 241.394,195.491 241.333 C 195.652 241.186,193.959 238.302,193.571 238.062 C 193.405 237.960,193.742 238.679,194.319 239.660 M359.108 243.507 C 359.108 246.328,359.158 247.481,359.220 246.071 C 359.282 244.661,359.282 242.353,359.220 240.943 C 359.158 239.533,359.108 240.687,359.108 243.507 M372.981 240.658 C 371.735 242.084,370.365 244.169,370.674 244.169 C 370.760 244.169,371.176 243.610,371.597 242.928 C 372.018 242.246,372.866 241.129,373.482 240.447 C 374.098 239.764,374.522 239.206,374.426 239.206 C 374.329 239.206,373.679 239.859,372.981 240.658 M142.240 240.116 C 141.864 240.612,141.869 240.635,142.274 240.273 C 142.664 239.924,142.851 239.982,143.343 240.603 L 143.939 241.356 143.546 240.447 C 143.087 239.386,142.840 239.323,142.240 240.116 M388.166 240.529 C 388.166 241.166,388.234 241.427,388.317 241.108 C 388.401 240.790,388.401 240.269,388.317 239.950 C 388.234 239.632,388.166 239.892,388.166 240.529 M67.659 240.860 C 67.377 241.406,67.220 241.853,67.311 241.853 C 67.402 241.853,67.708 241.406,67.990 240.860 C 68.272 240.314,68.429 239.868,68.338 239.868 C 68.247 239.868,67.942 240.314,67.659 240.860 M98.480 241.026 C 98.591 241.754,98.736 242.411,98.803 242.487 C 99.054 242.771,98.866 240.999,98.578 240.364 C 98.369 239.903,98.340 240.103,98.480 241.026 M88.361 240.695 C 88.361 240.877,88.574 241.398,88.834 241.853 C 89.094 242.308,89.307 242.531,89.307 242.349 C 89.307 242.167,89.094 241.646,88.834 241.191 C 88.574 240.736,88.361 240.513,88.361 240.695 M161.995 241.274 C 161.719 242.305,161.738 243.438,162.035 243.619 C 162.171 243.701,162.298 243.040,162.316 242.149 C 162.354 240.349,162.290 240.175,161.995 241.274 M252.592 243.203 C 251.265 245.838,251.398 246.519,253.225 246.440 C 254.130 246.400,254.156 246.376,253.433 246.243 C 251.775 245.938,251.721 245.590,252.952 243.145 C 253.585 241.888,254.028 240.860,253.937 240.860 C 253.846 240.860,253.241 241.915,252.592 243.203 M279.593 241.687 C 279.593 241.869,279.806 242.390,280.066 242.845 C 280.326 243.300,280.539 243.524,280.539 243.342 C 280.539 243.160,280.326 242.639,280.066 242.184 C 279.806 241.729,279.593 241.505,279.593 241.687 M108.726 242.362 C 108.612 242.658,108.535 243.222,108.553 243.617 C 108.575 244.070,108.687 243.909,108.859 243.178 C 109.148 241.949,109.069 241.467,108.726 242.362 M195.580 242.184 C 195.580 242.457,195.708 242.978,195.864 243.342 C 196.044 243.759,196.149 243.820,196.149 243.507 C 196.149 243.234,196.021 242.713,195.864 242.349 C 195.685 241.932,195.580 241.871,195.580 242.184 M153.562 242.514 C 153.562 242.787,153.690 243.309,153.846 243.672 C 154.025 244.090,154.130 244.151,154.130 243.838 C 154.130 243.565,154.003 243.044,153.846 242.680 C 153.667 242.263,153.562 242.202,153.562 242.514 M50.389 244.169 C 50.389 245.170,50.451 245.579,50.526 245.079 C 50.602 244.578,50.602 243.759,50.526 243.259 C 50.451 242.758,50.389 243.168,50.389 244.169 M172.428 244.017 C 171.873 245.234,171.979 245.494,172.578 244.388 C 172.858 243.871,173.025 243.387,172.950 243.311 C 172.874 243.235,172.639 243.553,172.428 244.017 M98.981 243.838 C 98.998 244.698,99.519 246.110,99.530 245.327 C 99.536 244.963,99.412 244.367,99.256 244.003 C 99.081 243.598,98.975 243.534,98.981 243.838 M388.854 245.327 C 388.855 246.419,388.917 246.825,388.991 246.231 C 389.064 245.636,389.063 244.743,388.987 244.246 C 388.912 243.748,388.852 244.235,388.854 245.327 M163.275 244.169 C 163.639 244.325,164.160 244.453,164.433 244.453 C 164.746 244.453,164.685 244.348,164.268 244.169 C 163.904 244.012,163.383 243.884,163.110 243.884 C 162.797 243.884,162.858 243.990,163.275 244.169 M139.123 245.823 C 138.202 247.640,138.051 247.710,136.625 246.972 C 136.089 246.695,135.649 246.542,135.649 246.633 C 135.649 246.980,137.715 247.848,138.147 247.682 C 138.581 247.515,140.467 244.169,140.127 244.169 C 140.036 244.169,139.584 244.913,139.123 245.823 M205.862 245.161 C 205.859 245.616,205.975 246.361,206.121 246.816 C 206.477 247.928,206.477 246.726,206.121 245.327 C 205.894 244.435,205.868 244.418,205.862 245.161 M281.014 244.889 C 281.204 245.505,280.738 245.999,279.735 246.245 C 279.211 246.374,279.254 246.416,279.943 246.446 C 281.100 246.497,281.743 245.738,281.225 244.930 C 280.909 244.437,280.873 244.430,281.014 244.889 M379.901 245.658 C 379.905 246.385,379.973 246.644,380.052 246.233 C 380.131 245.821,380.128 245.226,380.045 244.909 C 379.963 244.593,379.898 244.930,379.901 245.658 M154.394 245.988 C 154.505 246.716,154.650 247.374,154.717 247.450 C 154.968 247.734,154.780 245.962,154.492 245.327 C 154.283 244.866,154.254 245.066,154.394 245.988 M116.997 246.001 C 116.884 246.297,116.804 246.787,116.819 247.091 C 116.835 247.394,116.979 247.204,117.139 246.667 C 117.451 245.623,117.341 245.106,116.997 246.001 M290.390 246.981 C 290.495 247.891,290.635 248.697,290.700 248.773 C 290.947 249.060,290.760 246.621,290.486 245.988 C 290.301 245.563,290.267 245.917,290.390 246.981 M39.398 246.047 C 39.368 246.492,40.928 247.809,41.484 247.807 C 41.687 247.806,41.385 247.521,40.814 247.172 C 40.243 246.824,39.696 246.341,39.600 246.098 C 39.488 245.818,39.414 245.800,39.398 246.047 M256.162 246.726 C 256.844 246.797,257.961 246.797,258.644 246.726 C 259.326 246.654,258.768 246.596,257.403 246.596 C 256.038 246.596,255.480 246.654,256.162 246.726 M274.202 246.727 C 274.980 246.797,276.172 246.796,276.849 246.725 C 277.527 246.654,276.890 246.597,275.434 246.598 C 273.978 246.599,273.424 246.657,274.202 246.727 M49.297 247.146 L 48.139 247.390 49.195 247.434 C 49.775 247.458,50.342 247.328,50.455 247.146 C 50.567 246.964,50.613 246.835,50.557 246.859 C 50.501 246.883,49.934 247.012,49.297 247.146 M263.127 247.062 C 264.911 247.122,267.740 247.122,269.413 247.062 C 271.087 247.002,269.628 246.953,266.170 246.953 C 262.713 246.954,261.344 247.003,263.127 247.062 M343.120 247.213 C 343.105 247.522,342.833 247.927,342.514 248.112 C 342.196 248.298,342.103 248.454,342.309 248.460 C 342.855 248.474,343.514 247.568,343.316 247.075 C 343.206 246.801,343.136 246.850,343.120 247.213 M359.852 248.359 C 359.515 248.809,359.309 249.246,359.393 249.330 C 359.478 249.414,359.802 249.093,360.114 248.617 C 360.849 247.494,360.647 247.296,359.852 248.359 M42.921 248.047 C 43.508 248.120,44.550 248.121,45.237 248.050 C 45.923 247.978,45.443 247.918,44.169 247.917 C 42.895 247.915,42.333 247.974,42.921 248.047 M99.643 248.139 C 99.660 248.999,100.180 250.411,100.192 249.628 C 100.197 249.264,100.074 248.668,99.917 248.304 C 99.743 247.899,99.637 247.835,99.643 248.139 M206.551 249.462 C 206.551 250.463,206.613 250.873,206.689 250.372 C 206.764 249.872,206.764 249.053,206.689 248.553 C 206.613 248.052,206.551 248.462,206.551 249.462 M146.327 249.462 C 146.327 250.281,146.391 250.616,146.470 250.207 C 146.549 249.797,146.549 249.127,146.470 248.718 C 146.391 248.309,146.327 248.644,146.327 249.462 M196.947 249.462 C 196.947 250.281,197.012 250.616,197.090 250.207 C 197.169 249.797,197.169 249.127,197.090 248.718 C 197.012 248.309,196.947 248.644,196.947 249.462 M295.528 249.132 C 295.528 249.768,295.596 250.029,295.679 249.711 C 295.762 249.392,295.762 248.871,295.679 248.553 C 295.596 248.234,295.528 248.495,295.528 249.132 M339.785 248.987 C 339.148 249.228,338.870 249.433,339.168 249.444 C 339.466 249.454,340.210 249.245,340.822 248.979 C 342.200 248.381,341.370 248.387,339.785 248.987 M21.340 249.930 C 21.886 250.399,22.469 250.783,22.636 250.784 C 22.995 250.786,22.991 250.783,21.505 249.824 L 20.347 249.077 21.340 249.930 M155.246 250.455 C 155.246 251.092,155.314 251.352,155.398 251.034 C 155.481 250.715,155.481 250.194,155.398 249.876 C 155.314 249.557,155.246 249.818,155.246 250.455 M335.897 250.021 C 336.216 250.105,336.737 250.105,337.055 250.021 C 337.374 249.938,337.113 249.870,336.476 249.870 C 335.840 249.870,335.579 249.938,335.897 250.021 M74.194 250.352 C 74.512 250.435,75.033 250.435,75.352 250.352 C 75.670 250.269,75.409 250.201,74.773 250.201 C 74.136 250.201,73.875 250.269,74.194 250.352 M304.513 254.425 C 304.513 256.882,304.565 257.887,304.629 256.658 C 304.693 255.430,304.693 253.420,304.629 252.192 C 304.565 250.964,304.513 251.969,304.513 254.425 M380.591 252.440 C 380.591 253.805,380.649 254.363,380.721 253.681 C 380.792 252.998,380.792 251.882,380.721 251.199 C 380.649 250.517,380.591 251.075,380.591 252.440 M389.489 251.117 C 389.489 251.754,389.558 252.014,389.641 251.696 C 389.724 251.377,389.724 250.856,389.641 250.538 C 389.558 250.219,389.489 250.480,389.489 251.117 M116.257 255.418 C 116.257 257.692,116.309 258.623,116.374 257.486 C 116.439 256.348,116.439 254.487,116.374 253.350 C 116.309 252.213,116.257 253.143,116.257 255.418 M206.866 252.605 C 206.870 253.333,206.937 253.592,207.016 253.181 C 207.096 252.769,207.093 252.174,207.010 251.857 C 206.927 251.541,206.862 251.878,206.866 252.605 M294.879 253.102 C 294.879 253.921,294.944 254.256,295.023 253.846 C 295.101 253.437,295.101 252.767,295.023 252.357 C 294.944 251.948,294.879 252.283,294.879 253.102 M27.130 252.440 C 28.261 252.802,29.131 252.802,28.288 252.440 C 27.924 252.284,27.328 252.160,26.964 252.165 C 26.432 252.173,26.465 252.227,27.130 252.440 M84.036 252.605 C 84.491 252.866,85.012 253.078,85.194 253.078 C 85.376 253.078,85.153 252.866,84.698 252.605 C 84.243 252.345,83.722 252.133,83.540 252.133 C 83.358 252.133,83.581 252.345,84.036 252.605 M242.307 255.583 C 242.308 257.585,242.363 258.361,242.428 257.308 C 242.494 256.255,242.494 254.617,242.427 253.669 C 242.361 252.720,242.307 253.581,242.307 255.583 M29.777 253.102 C 30.908 253.464,31.778 253.464,30.935 253.102 C 30.571 252.945,29.975 252.822,29.611 252.827 C 29.079 252.835,29.112 252.889,29.777 253.102 M100.332 253.929 C 100.335 254.657,100.403 254.916,100.482 254.504 C 100.561 254.092,100.558 253.497,100.475 253.181 C 100.393 252.864,100.328 253.201,100.332 253.929 M11.414 254.756 C 12.125 255.484,12.781 256.079,12.872 256.079 C 12.963 256.079,12.456 255.484,11.745 254.756 C 11.034 254.028,10.379 253.433,10.288 253.433 C 10.197 253.433,10.704 254.028,11.414 254.756 M31.789 253.551 C 31.865 253.617,32.374 253.770,32.920 253.892 C 33.645 254.055,33.778 254.024,33.416 253.779 C 32.969 253.476,31.457 253.265,31.789 253.551 M86.683 253.782 C 87.885 254.603,90.351 255.747,90.891 255.734 C 91.215 255.726,90.934 255.524,90.265 255.286 C 89.597 255.047,88.509 254.532,87.848 254.142 C 86.631 253.424,85.770 253.158,86.683 253.782 M168.486 254.091 C 167.895 254.451,167.411 254.818,167.411 254.905 C 167.411 254.993,167.932 254.757,168.569 254.381 C 169.206 254.006,169.727 253.638,169.727 253.565 C 169.727 253.354,169.622 253.398,168.486 254.091 M195.203 254.591 C 195.658 254.851,196.179 255.063,196.361 255.063 C 196.543 255.063,196.319 254.851,195.864 254.591 C 195.409 254.331,194.888 254.118,194.706 254.118 C 194.524 254.118,194.748 254.331,195.203 254.591 M252.326 254.342 C 252.186 254.568,266.037 254.564,283.540 254.335 C 287.270 254.286,281.808 254.212,271.401 254.170 C 260.994 254.128,252.410 254.206,252.326 254.342 M35.732 254.700 C 36.005 254.869,36.600 255.106,37.055 255.228 C 37.630 255.382,37.731 255.356,37.386 255.143 C 37.113 254.974,36.518 254.736,36.063 254.615 C 35.488 254.461,35.387 254.487,35.732 254.700 M59.029 256.600 L 57.734 257.781 59.140 256.710 C 60.425 255.730,60.738 255.418,60.436 255.418 C 60.375 255.418,59.742 255.950,59.029 256.600 M13.556 256.521 C 14.072 257.192,16.674 259.057,17.093 259.057 C 17.239 259.057,16.765 258.664,16.040 258.183 C 15.316 257.702,14.355 256.995,13.906 256.611 C 13.283 256.080,13.200 256.058,13.556 256.521 M164.433 257.403 C 163.857 258.131,163.460 258.726,163.551 258.726 C 163.642 258.726,164.188 258.131,164.764 257.403 C 165.341 256.675,165.738 256.079,165.647 256.079 C 165.556 256.079,165.010 256.675,164.433 257.403 M207.190 257.072 C 207.190 257.709,207.258 257.969,207.341 257.651 C 207.425 257.333,207.425 256.811,207.341 256.493 C 207.258 256.175,207.190 256.435,207.190 257.072 M294.900 258.395 C 294.900 259.760,294.959 260.318,295.030 259.636 C 295.101 258.954,295.101 257.837,295.030 257.155 C 294.959 256.472,294.900 257.031,294.900 258.395 M381.225 258.561 C 381.229 259.289,381.296 259.547,381.375 259.136 C 381.455 258.724,381.452 258.129,381.369 257.813 C 381.286 257.496,381.221 257.833,381.225 258.561 M146.286 258.768 C 146.259 259.245,146.163 260.139,146.072 260.753 L 145.908 261.869 146.256 260.759 C 146.448 260.148,146.544 259.255,146.470 258.774 L 146.336 257.899 146.286 258.768 M100.325 259.388 C 100.325 260.025,100.393 260.285,100.476 259.967 C 100.559 259.648,100.559 259.127,100.476 258.809 C 100.393 258.490,100.325 258.751,100.325 259.388 M390.813 259.719 C 390.813 260.356,390.881 260.616,390.964 260.298 C 391.047 259.979,391.047 259.458,390.964 259.140 C 390.881 258.821,390.813 259.082,390.813 259.719 M206.859 260.050 C 206.859 260.687,206.927 260.947,207.011 260.629 C 207.094 260.310,207.094 259.789,207.011 259.471 C 206.927 259.152,206.859 259.413,206.859 260.050 M70.030 260.277 C 67.622 261.013,68.336 261.091,70.975 260.380 C 72.245 260.038,72.911 259.765,72.457 259.773 C 72.002 259.781,70.910 260.008,70.030 260.277 M78.908 260.056 C 79.636 260.202,81.050 260.643,82.051 261.036 C 83.052 261.429,83.722 261.610,83.540 261.438 C 82.970 260.897,79.422 259.717,78.482 259.755 C 77.789 259.783,77.887 259.852,78.908 260.056 M183.650 259.840 C 183.726 259.907,184.384 260.053,185.112 260.163 C 186.034 260.304,186.235 260.274,185.773 260.065 C 185.138 259.777,183.366 259.590,183.650 259.840 M107.941 261.538 C 107.945 262.266,108.013 262.525,108.092 262.114 C 108.171 261.702,108.168 261.107,108.085 260.790 C 108.002 260.474,107.937 260.811,107.941 261.538 M242.591 261.373 C 242.591 262.010,242.659 262.270,242.743 261.952 C 242.826 261.634,242.826 261.112,242.743 260.794 C 242.659 260.476,242.591 260.736,242.591 261.373 M206.572 264.516 C 206.573 266.336,206.629 267.038,206.696 266.077 C 206.763 265.115,206.762 263.626,206.694 262.768 C 206.626 261.910,206.572 262.696,206.572 264.516 M172.138 262.779 C 171.161 263.802,170.037 265.988,170.076 266.790 C 170.086 266.995,170.394 266.419,170.760 265.509 C 171.127 264.599,171.892 263.371,172.461 262.779 C 173.031 262.188,173.422 261.704,173.331 261.704 C 173.240 261.704,172.703 262.188,172.138 262.779 M191.894 262.561 C 192.713 263.028,193.669 263.659,194.019 263.963 C 194.380 264.278,194.542 264.324,194.393 264.070 C 194.081 263.539,191.252 261.702,190.754 261.708 C 190.562 261.710,191.075 262.094,191.894 262.561 M28.122 262.587 C 28.395 262.681,29.656 263.118,30.924 263.559 C 32.191 264.001,33.085 264.228,32.909 264.064 C 32.488 263.672,28.709 262.358,28.100 262.392 C 27.712 262.413,27.716 262.449,28.122 262.587 M145.615 262.862 C 145.588 263.226,145.489 263.896,145.396 264.351 L 145.225 265.178 145.580 264.366 C 145.775 263.920,145.874 263.250,145.800 262.877 C 145.668 262.218,145.664 262.217,145.615 262.862 M87.179 263.568 C 87.361 263.729,88.031 264.305,88.667 264.850 L 89.824 265.840 88.998 264.899 C 88.544 264.382,87.874 263.806,87.510 263.618 C 87.146 263.431,86.998 263.408,87.179 263.568 M381.902 265.343 C 381.902 266.344,381.964 266.754,382.040 266.253 C 382.116 265.753,382.116 264.934,382.040 264.433 C 381.964 263.933,381.902 264.342,381.902 265.343 M196.048 265.695 C 196.766 266.525,197.420 267.153,197.502 267.090 C 197.584 267.027,196.997 266.347,196.197 265.580 L 194.743 264.185 196.048 265.695 M252.817 264.682 C 252.817 264.955,252.945 265.476,253.102 265.840 C 253.281 266.257,253.386 266.318,253.386 266.005 C 253.386 265.732,253.258 265.211,253.102 264.847 C 252.923 264.430,252.817 264.369,252.817 264.682 M295.984 265.178 C 296.256 266.394,296.445 266.658,296.438 265.812 C 296.435 265.463,296.282 264.955,296.097 264.682 C 295.852 264.319,295.821 264.453,295.984 265.178 M153.722 265.715 C 153.446 267.095,153.714 267.362,154.012 266.005 C 154.137 265.433,154.171 264.896,154.087 264.812 C 154.002 264.728,153.838 265.134,153.722 265.715 M243.232 265.509 C 243.227 265.873,243.351 266.468,243.507 266.832 C 243.869 267.675,243.869 266.805,243.507 265.674 C 243.294 265.009,243.240 264.977,243.232 265.509 M99.663 266.336 C 99.663 266.973,99.731 267.233,99.814 266.915 C 99.898 266.596,99.898 266.075,99.814 265.757 C 99.731 265.438,99.663 265.699,99.663 266.336 M160.235 267.163 C 160.237 268.255,160.298 268.662,160.372 268.067 C 160.446 267.472,160.444 266.579,160.369 266.082 C 160.293 265.585,160.233 266.071,160.235 267.163 M11.172 265.914 C 11.767 265.988,12.660 265.986,13.157 265.911 C 13.654 265.835,13.168 265.775,12.076 265.777 C 10.984 265.778,10.578 265.840,11.172 265.914 M334.013 266.584 C 333.461 267.491,333.462 267.491,334.089 266.776 C 334.436 266.382,335.152 265.995,335.681 265.916 L 336.642 265.773 335.605 265.724 C 334.799 265.685,334.444 265.877,334.013 266.584 M7.444 266.336 C 6.601 266.698,7.471 266.698,8.602 266.336 C 9.267 266.123,9.300 266.069,8.768 266.061 C 8.404 266.056,7.808 266.179,7.444 266.336 M47.027 266.998 C 47.027 267.270,47.155 267.792,47.312 268.156 C 47.491 268.573,47.596 268.634,47.596 268.321 C 47.596 268.048,47.468 267.527,47.312 267.163 C 47.133 266.746,47.027 266.685,47.027 266.998 M288.495 268.254 L 288.654 269.810 288.767 268.525 C 288.828 267.819,288.757 267.119,288.607 266.969 C 288.457 266.820,288.407 267.398,288.495 268.254 M144.305 267.839 C 143.751 269.055,143.857 269.315,144.456 268.209 C 144.736 267.692,144.903 267.208,144.827 267.132 C 144.752 267.057,144.517 267.375,144.305 267.839 M169.826 269.644 C 169.826 270.645,169.888 271.055,169.964 270.554 C 170.040 270.054,170.040 269.235,169.964 268.734 C 169.888 268.234,169.826 268.644,169.826 269.644 M109.186 269.176 C 109.189 269.524,109.342 270.033,109.527 270.306 C 109.772 270.668,109.803 270.535,109.641 269.810 C 109.369 268.593,109.179 268.329,109.186 269.176 M152.556 270.174 C 152.366 270.863,152.269 271.486,152.342 271.559 C 152.415 271.632,152.630 271.128,152.821 270.438 C 153.011 269.749,153.107 269.126,153.034 269.053 C 152.961 268.980,152.746 269.484,152.556 270.174 M142.837 271.076 C 142.340 272.024,141.252 273.616,140.417 274.613 L 138.900 276.427 140.537 274.679 C 142.041 273.072,144.154 269.767,143.863 269.476 C 143.795 269.408,143.333 270.128,142.837 271.076 M159.901 270.968 C 159.901 271.969,159.963 272.378,160.038 271.878 C 160.114 271.377,160.114 270.558,160.038 270.058 C 159.963 269.557,159.901 269.967,159.901 270.968 M341.865 270.802 C 341.867 271.712,341.931 272.045,342.007 271.542 C 342.084 271.039,342.081 270.295,342.003 269.888 C 341.924 269.481,341.862 269.892,341.865 270.802 M197.188 270.081 C 197.188 270.321,196.653 271.177,195.999 271.983 L 194.811 273.449 196.165 272.000 C 197.336 270.747,197.892 269.644,197.353 269.644 C 197.262 269.644,197.188 269.841,197.188 270.081 M331.348 270.637 C 331.066 271.183,330.909 271.629,331.000 271.629 C 331.091 271.629,331.397 271.183,331.679 270.637 C 331.961 270.091,332.118 269.644,332.027 269.644 C 331.936 269.644,331.631 270.091,331.348 270.637 M255.272 271.006 C 255.923 272.265,258.270 274.851,259.202 275.336 C 259.577 275.531,259.191 275.075,258.344 274.321 C 257.496 273.568,256.411 272.281,255.931 271.463 C 254.941 269.774,254.464 269.443,255.272 271.006 M276.962 272.208 C 276.003 273.443,275.768 273.850,276.437 273.118 C 277.716 271.718,279.040 269.975,278.825 269.975 C 278.754 269.975,277.916 270.980,276.962 272.208 M206.250 274.607 C 206.250 277.064,206.302 278.069,206.366 276.840 C 206.430 275.612,206.430 273.602,206.366 272.374 C 206.302 271.146,206.250 272.151,206.250 274.607 M309.016 271.629 C 309.404 272.175,309.797 272.622,309.888 272.622 C 309.979 272.622,309.735 272.175,309.347 271.629 C 308.958 271.084,308.565 270.637,308.474 270.637 C 308.383 270.637,308.627 271.084,309.016 271.629 M47.357 271.629 C 47.327 272.084,47.226 272.829,47.133 273.284 L 46.962 274.111 47.318 273.296 C 47.513 272.849,47.614 272.104,47.542 271.642 L 47.411 270.802 47.357 271.629 M88.520 272.846 C 87.437 273.866,86.842 274.542,87.196 274.349 C 87.825 274.005,90.942 270.956,90.640 270.980 C 90.556 270.986,89.602 271.826,88.520 272.846 M287.785 271.629 C 287.681 272.084,287.492 272.754,287.366 273.118 C 287.240 273.482,287.379 273.362,287.675 272.851 C 287.971 272.340,288.159 271.670,288.093 271.362 C 288.008 270.963,287.920 271.039,287.785 271.629 M37.221 272.622 C 36.939 273.168,36.782 273.615,36.873 273.615 C 36.964 273.615,37.269 273.168,37.552 272.622 C 37.834 272.076,37.991 271.629,37.900 271.629 C 37.809 271.629,37.503 272.076,37.221 272.622 M18.529 272.153 C 18.530 272.320,18.915 272.903,19.384 273.449 L 20.237 274.442 19.489 273.284 C 18.531 271.798,18.527 271.794,18.529 272.153 M120.142 272.953 C 120.563 273.854,122.084 275.790,122.084 275.425 C 122.084 275.301,121.749 274.788,121.340 274.286 C 120.931 273.783,120.406 273.092,120.175 272.749 C 119.821 272.224,119.816 272.256,120.142 272.953 M245.161 272.418 C 245.161 272.773,246.146 274.607,246.336 274.607 C 246.427 274.607,246.256 274.123,245.955 273.532 C 245.341 272.324,245.161 272.072,245.161 272.418 M160.222 274.607 C 160.222 275.426,160.287 275.761,160.366 275.352 C 160.445 274.942,160.445 274.272,160.366 273.863 C 160.287 273.453,160.222 273.788,160.222 274.607 M193.447 274.121 C 192.937 274.570,192.650 274.938,192.811 274.938 C 192.971 274.938,193.452 274.566,193.879 274.111 C 194.868 273.058,194.649 273.064,193.447 274.121 M111.497 274.938 C 111.868 275.666,112.247 276.261,112.338 276.261 C 112.429 276.261,112.199 275.666,111.828 274.938 C 111.457 274.210,111.078 273.615,110.987 273.615 C 110.896 273.615,111.126 274.210,111.497 274.938 M150.768 274.777 C 150.465 275.411,150.286 275.931,150.369 275.931 C 150.595 275.931,151.600 273.905,151.448 273.753 C 151.377 273.682,151.070 274.142,150.768 274.777 M64.316 274.773 C 64.576 275.318,65.280 276.212,65.881 276.758 L 66.973 277.750 65.827 276.401 C 65.197 275.658,64.493 274.765,64.263 274.415 C 64.033 274.066,64.057 274.226,64.316 274.773 M391.144 274.773 C 391.145 275.318,391.259 276.212,391.398 276.758 C 391.748 278.134,391.763 276.779,391.417 275.103 C 391.187 273.991,391.143 273.938,391.144 274.773 M20.845 275.382 C 21.299 275.899,21.969 276.476,22.333 276.663 C 23.029 277.022,23.009 277.000,21.176 275.432 L 20.019 274.442 20.845 275.382 M171.310 275.434 C 171.498 275.798,172.074 276.468,172.592 276.922 L 173.532 277.748 172.542 276.591 C 170.973 274.758,170.952 274.738,171.310 275.434 M312.553 275.636 C 312.951 276.071,313.770 276.710,314.372 277.057 C 315.750 277.850,315.564 277.648,313.482 276.086 C 312.508 275.355,312.126 275.170,312.553 275.636 M360.336 275.655 C 360.315 275.959,360.212 276.480,360.107 276.813 C 359.927 277.388,359.937 277.389,360.295 276.830 C 360.503 276.506,360.606 275.985,360.524 275.672 C 360.389 275.160,360.371 275.158,360.336 275.655 M83.623 276.120 C 82.386 276.791,82.461 277.070,83.706 276.427 C 84.251 276.145,84.698 275.843,84.698 275.757 C 84.698 275.544,84.663 275.556,83.623 276.120 M247.336 276.427 C 247.966 277.524,251.146 281.555,251.380 281.555 C 251.543 281.555,251.519 281.522,249.429 278.903 C 248.629 277.900,247.702 276.709,247.369 276.257 C 246.772 275.443,246.772 275.445,247.336 276.427 M260.050 275.762 C 260.050 275.988,262.075 276.993,262.227 276.841 C 262.299 276.770,261.838 276.463,261.203 276.161 C 260.569 275.858,260.050 275.679,260.050 275.762 M325.724 276.501 C 325.178 276.800,324.210 277.235,323.573 277.466 C 322.936 277.697,322.681 277.893,323.005 277.901 C 323.603 277.916,326.882 276.384,326.882 276.090 C 326.882 275.872,326.852 275.883,325.724 276.501 M113.022 277.524 C 113.366 278.128,113.936 278.872,114.288 279.179 C 114.660 279.502,114.529 279.182,113.975 278.412 C 112.649 276.570,112.283 276.229,113.022 277.524 M124.438 277.535 C 125.495 278.356,126.739 278.996,126.921 278.814 C 127.002 278.733,126.622 278.481,126.076 278.255 C 125.530 278.029,124.912 277.637,124.702 277.384 C 124.491 277.130,124.169 276.923,123.984 276.923 C 123.800 276.923,124.004 277.199,124.438 277.535 M263.358 277.254 C 264.489 277.616,265.359 277.616,264.516 277.254 C 264.152 277.098,263.557 276.974,263.193 276.979 C 262.661 276.987,262.693 277.041,263.358 277.254 M269.479 277.254 C 269.062 277.433,269.001 277.538,269.313 277.538 C 269.586 277.538,270.108 277.410,270.471 277.254 C 270.889 277.075,270.950 276.970,270.637 276.970 C 270.364 276.970,269.843 277.098,269.479 277.254 M147.974 279.077 C 147.200 280.078,146.567 280.997,146.567 281.119 C 146.567 281.240,147.237 280.477,148.056 279.422 C 149.424 277.661,149.690 277.252,149.462 277.255 C 149.417 277.256,148.747 278.076,147.974 279.077 M25.563 277.822 C 26.066 277.898,26.810 277.896,27.217 277.818 C 27.624 277.739,27.213 277.677,26.303 277.679 C 25.393 277.682,25.060 277.746,25.563 277.822 M28.867 277.822 C 29.367 277.898,30.186 277.898,30.687 277.822 C 31.187 277.746,30.778 277.684,29.777 277.684 C 28.776 277.684,28.366 277.746,28.867 277.822 M160.794 277.801 C 160.794 278.420,163.327 282.030,164.471 283.042 C 165.573 284.016,165.572 284.011,164.371 282.711 C 163.700 281.984,162.621 280.505,161.973 279.424 C 161.324 278.343,160.794 277.613,160.794 277.801 M175.186 278.363 C 176.096 278.797,177.361 279.247,177.998 279.364 C 178.665 279.486,178.244 279.241,177.006 278.788 C 173.719 277.583,173.387 277.505,175.186 278.363 M266.253 277.818 C 266.663 277.897,267.333 277.897,267.742 277.818 C 268.151 277.739,267.816 277.675,266.998 277.675 C 266.179 277.675,265.844 277.739,266.253 277.818 M282.548 280.066 C 281.192 281.431,280.157 282.548,280.248 282.548 C 280.339 282.548,281.523 281.431,282.878 280.066 C 284.234 278.701,285.269 277.585,285.178 277.585 C 285.087 277.585,283.903 278.701,282.548 280.066 M316.581 278.063 C 317.234 278.365,318.463 278.556,319.558 278.525 L 321.423 278.473 319.272 278.238 C 318.089 278.108,316.749 277.900,316.294 277.775 C 315.797 277.639,315.911 277.753,316.581 278.063 M70.168 279.031 C 70.244 279.099,71.050 279.240,71.960 279.345 C 73.076 279.474,73.345 279.445,72.787 279.255 C 71.961 278.974,69.908 278.799,70.168 279.031 M75.434 279.244 C 75.085 279.473,75.281 279.506,76.096 279.356 C 77.523 279.095,77.792 278.907,76.730 278.913 C 76.290 278.916,75.707 279.065,75.434 279.244 M302.328 279.739 C 302.515 280.105,303.017 280.699,303.443 281.060 C 304.191 281.693,304.189 281.681,303.396 280.726 C 302.079 279.139,301.968 279.036,302.328 279.739 M12.572 281.390 C 13.561 282.390,14.444 283.209,14.535 283.209 C 14.626 283.209,13.892 282.390,12.903 281.390 C 11.915 280.389,11.032 279.570,10.941 279.570 C 10.850 279.570,11.584 280.389,12.572 281.390 M129.781 279.807 C 130.284 279.883,131.029 279.881,131.435 279.803 C 131.842 279.724,131.431 279.662,130.521 279.665 C 129.611 279.667,129.278 279.731,129.781 279.807 M205.901 281.886 C 205.901 283.251,205.960 283.809,206.031 283.127 C 206.102 282.444,206.102 281.328,206.031 280.645 C 205.960 279.963,205.901 280.521,205.901 281.886 M359.681 280.122 C 359.656 280.516,359.550 281.112,359.446 281.445 C 359.265 282.019,359.275 282.020,359.633 281.463 C 359.841 281.139,359.946 280.544,359.868 280.139 C 359.726 279.405,359.726 279.405,359.681 280.122 M115.460 280.883 C 115.845 281.424,116.329 281.970,116.535 282.098 C 116.742 282.226,116.494 281.783,115.984 281.115 C 114.878 279.665,114.462 279.481,115.460 280.883 M145.058 282.299 L 144.086 283.375 145.161 282.403 C 146.164 281.497,146.389 281.224,146.133 281.224 C 146.076 281.224,145.592 281.708,145.058 282.299 M99.332 282.548 C 99.332 283.184,99.400 283.445,99.484 283.127 C 99.567 282.808,99.567 282.287,99.484 281.969 C 99.400 281.650,99.332 281.911,99.332 282.548 M304.394 281.803 C 304.400 281.940,304.809 282.337,305.304 282.686 L 306.203 283.322 305.401 282.438 C 304.559 281.510,304.377 281.396,304.394 281.803 M57.734 282.520 C 58.377 283.259,60.215 284.697,60.215 284.460 C 60.215 284.395,59.508 283.761,58.644 283.050 C 57.779 282.340,57.370 282.101,57.734 282.520 M117.039 282.878 C 117.703 283.622,117.536 284.171,116.095 285.976 L 114.739 287.676 116.254 286.022 C 117.894 284.231,118.104 283.533,117.204 282.852 C 116.712 282.479,116.687 282.483,117.039 282.878 M391.805 283.540 C 391.805 284.177,391.874 284.438,391.957 284.119 C 392.040 283.801,392.040 283.280,391.957 282.961 C 391.874 282.643,391.805 282.903,391.805 283.540 M195.046 283.160 C 195.415 283.278,196.375 284.093,197.179 284.972 C 199.033 286.995,200.065 287.523,202.051 287.462 L 203.639 287.413 201.805 287.214 C 199.648 286.979,198.673 286.406,196.975 284.374 C 196.197 283.444,195.469 282.891,195.050 282.911 L 194.376 282.944 195.046 283.160 M86.597 283.995 C 85.008 284.972,84.564 285.433,85.856 284.765 C 86.893 284.229,88.292 283.230,88.007 283.230 C 87.916 283.230,87.281 283.574,86.597 283.995 M192.625 284.091 C 191.844 284.562,191.272 285.014,191.354 285.095 C 191.500 285.242,194.210 283.567,194.210 283.331 C 194.210 283.144,194.142 283.177,192.625 284.091 M359.058 284.367 C 359.061 285.095,359.129 285.354,359.208 284.942 C 359.287 284.531,359.284 283.935,359.202 283.619 C 359.119 283.303,359.054 283.639,359.058 284.367 M308.354 284.710 C 308.354 285.012,312.567 286.850,313.227 286.837 C 313.549 286.830,313.069 286.556,312.159 286.228 C 311.249 285.899,310.021 285.380,309.429 285.073 C 308.838 284.766,308.354 284.603,308.354 284.710 M327.543 285.100 C 326.907 285.383,325.641 285.886,324.731 286.219 C 323.821 286.552,323.317 286.830,323.610 286.837 C 324.115 286.848,328.812 285.029,329.149 284.691 C 329.444 284.396,328.707 284.584,327.543 285.100 M83.623 285.714 C 82.386 286.385,82.461 286.665,83.706 286.022 C 84.251 285.739,84.698 285.438,84.698 285.351 C 84.698 285.138,84.663 285.150,83.623 285.714 M257.734 285.691 C 258.189 285.951,258.784 286.163,259.057 286.162 C 259.330 286.162,259.052 285.944,258.440 285.678 C 257.031 285.066,256.653 285.073,257.734 285.691 M204.467 286.412 C 203.733 287.188,203.719 287.244,204.345 286.911 C 204.733 286.705,205.138 286.309,205.244 286.031 C 205.504 285.355,205.433 285.390,204.467 286.412 M392.098 286.286 L 392.060 287.213 387.128 287.113 C 384.415 287.059,382.265 287.126,382.350 287.262 C 382.435 287.399,384.659 287.510,387.292 287.510 C 392.336 287.510,392.667 287.408,392.291 285.958 C 392.192 285.574,392.123 285.691,392.098 286.286 M19.879 285.978 C 19.955 286.044,20.612 286.190,21.340 286.301 C 22.262 286.441,22.463 286.411,22.002 286.202 C 21.367 285.915,19.594 285.727,19.879 285.978 M91.831 286.342 C 92.184 286.609,92.696 286.831,92.969 286.836 C 93.242 286.841,93.039 286.622,92.518 286.350 C 91.311 285.721,91.005 285.717,91.831 286.342 M98.555 286.776 C 98.446 287.434,98.494 287.742,98.678 287.559 C 98.844 287.392,98.925 286.904,98.858 286.473 C 98.753 285.811,98.707 285.858,98.555 286.776 M169.396 286.352 C 169.851 286.612,170.372 286.825,170.554 286.825 C 170.736 286.825,170.513 286.612,170.058 286.352 C 169.603 286.092,169.082 285.880,168.900 285.880 C 168.718 285.880,168.941 286.092,169.396 286.352 M188.255 286.352 C 187.800 286.612,187.577 286.825,187.758 286.825 C 187.940 286.825,188.462 286.612,188.916 286.352 C 189.371 286.092,189.595 285.880,189.413 285.880 C 189.231 285.880,188.710 286.092,188.255 286.352 M221.977 286.600 C 223.100 287.875,227.781 287.988,228.816 286.766 C 229.445 286.022,229.445 286.022,228.758 286.600 C 227.649 287.535,223.150 287.424,222.023 286.435 L 221.175 285.691 221.977 286.600 M349.265 286.270 C 349.350 286.406,351.485 286.518,354.012 286.518 C 356.538 286.518,358.673 286.406,358.758 286.270 C 358.842 286.133,356.706 286.022,354.012 286.022 C 351.317 286.022,349.181 286.133,349.265 286.270 M25.243 286.764 C 26.661 286.826,28.894 286.826,30.205 286.763 C 31.516 286.701,30.356 286.650,27.626 286.650 C 24.897 286.651,23.824 286.702,25.243 286.764 M261.125 286.746 C 261.443 286.829,261.964 286.829,262.283 286.746 C 262.601 286.663,262.341 286.595,261.704 286.595 C 261.067 286.595,260.806 286.663,261.125 286.746 M270.389 286.746 C 270.707 286.829,271.228 286.829,271.547 286.746 C 271.865 286.663,271.605 286.595,270.968 286.595 C 270.331 286.595,270.070 286.663,270.389 286.746 M93.979 287.197 C 94.421 287.477,96.892 287.660,96.581 287.390 C 96.505 287.324,95.781 287.186,94.972 287.082 C 94.020 286.960,93.669 287.001,93.979 287.197 M265.922 287.413 C 266.332 287.492,267.002 287.492,267.411 287.413 C 267.821 287.334,267.486 287.270,266.667 287.270 C 265.848 287.270,265.513 287.334,265.922 287.413 M316.720 287.424 C 317.773 287.490,319.411 287.490,320.359 287.423 C 321.308 287.356,320.447 287.303,318.445 287.303 C 316.443 287.304,315.667 287.358,316.720 287.424 M173.366 287.826 C 173.639 288.011,174.148 288.164,174.497 288.167 C 175.343 288.174,175.079 287.984,173.863 287.712 C 173.138 287.550,173.004 287.581,173.366 287.826 M183.788 287.841 C 182.873 288.074,182.860 288.096,183.623 288.128 C 184.078 288.147,184.673 288.018,184.946 287.841 C 185.509 287.477,185.218 287.477,183.788 287.841 M113.762 288.751 C 112.870 289.722,111.333 292.142,111.609 292.142 C 111.700 292.142,112.108 291.584,112.515 290.902 C 112.923 290.219,113.633 289.251,114.093 288.751 C 114.553 288.251,114.855 287.841,114.764 287.841 C 114.673 287.841,114.222 288.251,113.762 288.751 M128.789 288.079 C 129.292 288.155,130.036 288.153,130.443 288.074 C 130.850 287.996,130.438 287.933,129.529 287.936 C 128.619 287.938,128.286 288.003,128.789 288.079 M176.607 288.562 C 177.317 288.845,180.229 288.838,181.250 288.551 C 181.673 288.432,180.674 288.335,179.031 288.336 C 177.387 288.337,176.296 288.439,176.607 288.562 M72.711 288.743 C 73.305 288.816,74.199 288.815,74.696 288.739 C 75.193 288.664,74.706 288.604,73.615 288.605 C 72.523 288.607,72.116 288.669,72.711 288.743 M140.778 289.165 C 140.360 289.344,140.299 289.449,140.612 289.449 C 140.885 289.449,141.406 289.321,141.770 289.165 C 142.187 288.985,142.248 288.880,141.935 288.880 C 141.663 288.880,141.141 289.008,140.778 289.165 M121.707 289.744 C 120.755 290.893,120.352 291.481,120.516 291.481 C 120.607 291.481,121.080 290.959,121.566 290.323 C 122.467 289.141,122.576 288.695,121.707 289.744 M135.236 291.339 C 133.999 292.010,134.074 292.289,135.318 291.646 C 135.864 291.364,136.311 291.062,136.311 290.976 C 136.311 290.763,136.275 290.775,135.236 291.339 M154.247 293.548 C 154.876 294.322,155.559 295.252,155.766 295.616 C 155.973 295.980,156.147 296.111,156.152 295.908 C 156.163 295.519,153.589 292.142,153.282 292.142 C 153.184 292.142,153.619 292.775,154.247 293.548 M119.553 296.443 C 119.553 297.990,119.610 298.623,119.680 297.849 C 119.749 297.076,119.749 295.811,119.680 295.037 C 119.610 294.264,119.553 294.897,119.553 296.443 M127.897 296.143 C 125.484 297.745,125.116 298.114,126.925 297.118 C 128.202 296.415,130.393 294.796,130.025 294.827 C 129.934 294.834,128.976 295.427,127.897 296.143 M110.055 296.182 C 109.943 296.599,109.871 297.684,109.894 298.594 C 109.933 300.107,109.957 300.050,110.178 297.932 C 110.433 295.494,110.392 294.922,110.055 296.182 M142.354 298.335 C 142.857 298.411,143.601 298.409,144.008 298.330 C 144.415 298.252,144.003 298.190,143.093 298.192 C 142.184 298.195,141.851 298.259,142.354 298.335 M144.913 298.532 C 144.913 298.588,145.397 298.984,145.988 299.411 L 147.064 300.188 146.262 299.308 C 145.576 298.557,144.913 298.175,144.913 298.532 M157.261 302.399 C 157.261 303.581,157.321 304.065,157.394 303.474 C 157.467 302.883,157.467 301.915,157.394 301.323 C 157.321 300.732,157.261 301.216,157.261 302.399 M147.335 303.060 C 147.335 304.243,147.395 304.727,147.468 304.136 C 147.542 303.544,147.542 302.577,147.468 301.985 C 147.395 301.394,147.335 301.878,147.335 303.060 M132.248 303.530 C 130.295 304.882,129.830 305.356,131.271 304.526 C 132.382 303.887,134.290 302.418,133.995 302.429 C 133.904 302.432,133.118 302.928,132.248 303.530 M145.553 307.390 C 144.722 308.284,144.145 309.016,144.270 309.016 C 144.525 309.016,147.229 306.151,147.229 305.880 C 147.229 305.602,147.139 305.683,145.553 307.390 M117.535 307.590 C 117.854 307.673,118.375 307.673,118.693 307.590 C 119.012 307.506,118.751 307.438,118.114 307.438 C 117.477 307.438,117.217 307.506,117.535 307.590 M123.490 307.590 C 123.809 307.673,124.330 307.673,124.648 307.590 C 124.967 307.506,124.706 307.438,124.069 307.438 C 123.433 307.438,123.172 307.506,123.490 307.590 M120.182 307.929 C 120.682 308.005,121.501 308.005,122.002 307.929 C 122.502 307.853,122.093 307.791,121.092 307.791 C 120.091 307.791,119.682 307.853,120.182 307.929 M126.055 313.957 C 125.600 314.091,126.716 314.139,128.536 314.063 C 130.356 313.988,131.993 313.876,132.175 313.813 C 132.851 313.582,126.850 313.723,126.055 313.957 M130.190 321.588 L 127.543 321.798 130.025 321.835 C 131.390 321.856,132.804 321.744,133.168 321.588 C 133.533 321.431,133.607 321.321,133.333 321.341 C 133.060 321.362,131.646 321.473,130.190 321.588 " stroke="none" fill="#0a83f5" fill-rule="evenodd"></path><path id="path1" d="M222.026 206.993 C 221.377 207.818,221.340 208.275,221.340 215.571 C 221.340 225.182,221.978 224.318,214.884 224.318 C 211.401 224.318,209.390 224.444,209.250 224.671 C 208.869 225.288,208.674 228.808,208.914 230.733 L 209.146 232.589 214.901 232.589 C 220.251 232.589,220.679 232.634,220.997 233.229 C 221.225 233.654,221.340 242.559,221.340 259.805 L 221.340 285.741 222.106 286.460 C 222.761 287.075,223.256 287.179,225.528 287.179 C 229.863 287.179,229.418 290.193,229.611 259.507 C 229.755 236.628,229.841 233.186,230.273 232.913 C 230.546 232.740,233.207 232.597,236.187 232.594 L 241.604 232.589 241.397 230.687 C 241.283 229.640,241.095 227.776,240.980 226.545 L 240.770 224.305 236.388 224.525 L 232.006 224.745 231.388 223.802 C 230.840 222.968,230.750 221.944,230.604 214.913 L 230.438 206.968 227.957 206.570 C 223.859 205.912,222.818 205.986,222.026 206.993 M350.469 206.620 C 349.073 207.597,349.037 208.717,349.128 248.304 L 349.214 286.022 353.936 286.113 C 357.548 286.184,358.685 286.106,358.774 285.782 C 358.838 285.550,359.138 283.648,359.442 281.555 C 360.295 275.670,361.062 271.265,361.646 268.900 C 365.505 253.261,370.058 242.856,374.695 239.079 C 376.818 237.350,377.072 237.328,377.929 238.796 C 379.543 241.559,380.155 244.551,380.854 253.102 C 381.040 255.376,381.340 258.503,381.520 260.050 C 381.700 261.596,381.950 268.296,382.074 274.938 L 382.299 287.014 387.169 287.106 L 392.039 287.197 391.860 282.804 C 391.762 280.389,391.544 277.697,391.374 276.824 C 391.205 275.951,391.067 272.254,391.067 268.609 C 391.067 262.449,390.522 255.893,389.751 252.771 C 389.593 252.134,389.297 249.975,389.093 247.974 C 387.576 233.113,384.161 227.491,377.337 228.619 C 372.315 229.449,367.198 234.789,362.440 244.169 C 361.379 246.261,360.285 248.325,360.011 248.754 L 359.512 249.535 359.216 248.754 C 359.052 248.325,358.931 239.804,358.947 229.819 C 358.976 210.598,358.808 207.710,357.605 206.700 C 356.681 205.923,351.545 205.866,350.469 206.620 M144.940 214.475 C 143.525 217.552,142.844 219.426,141.460 224.043 C 140.759 226.382,140.776 226.377,136.973 225.387 C 117.121 220.218,104.680 236.581,108.366 263.011 C 109.435 270.672,110.859 274.224,115.218 280.094 C 118.305 284.252,118.279 283.692,115.545 286.974 C 109.251 294.530,108.465 300.042,113.029 304.609 C 115.502 307.083,116.699 307.501,121.257 307.483 C 126.014 307.464,126.733 307.192,133.042 303.017 C 140.427 298.130,142.855 297.230,145.234 298.499 C 148.034 299.991,148.431 304.862,145.967 307.478 C 141.904 311.792,137.706 313.485,129.859 313.976 C 123.262 314.389,122.280 314.991,121.660 319.003 C 121.401 320.675,121.738 320.863,125.756 321.284 C 132.717 322.015,141.358 320.591,146.850 317.808 C 158.052 312.131,160.759 297.346,151.697 291.331 C 145.583 287.273,140.100 288.130,130.687 294.615 C 125.816 297.971,121.498 299.810,119.915 299.203 C 119.249 298.947,119.277 294.715,119.959 292.716 C 121.367 288.582,123.746 287.298,129.020 287.825 C 132.867 288.210,133.360 288.162,136.435 287.110 C 144.357 284.400,149.712 278.841,152.462 270.471 C 157.039 256.545,155.984 243.825,149.409 233.662 C 147.441 230.619,147.340 231.062,151.416 224.873 C 155.837 218.161,155.727 218.816,152.799 216.631 C 146.440 211.887,146.165 211.811,144.940 214.475 M23.656 222.548 C 2.234 228.397,-0.006 251.499,20.017 260.088 C 20.658 260.363,22.130 260.773,26.964 262.024 C 32.801 263.534,34.529 264.511,37.305 267.871 C 39.000 269.922,39.010 270.090,37.582 272.522 C 35.114 276.725,32.990 277.918,27.981 277.912 C 22.889 277.907,19.960 275.789,17.866 270.597 C 16.430 267.037,15.156 266.004,12.210 266.011 C 7.099 266.025,5.825 266.810,6.627 269.451 C 8.637 276.076,9.704 278.058,13.053 281.392 C 17.112 285.431,20.190 286.518,27.576 286.518 C 33.409 286.518,35.384 286.163,38.844 284.496 C 44.311 281.862,48.982 272.969,47.353 268.297 C 47.148 267.710,46.981 266.870,46.981 266.430 C 46.981 264.900,44.826 260.944,42.999 259.119 C 40.083 256.208,37.627 255.084,29.932 253.141 C 15.765 249.564,12.004 240.795,21.562 233.627 C 23.421 232.234,29.089 231.371,30.691 232.238 C 31.007 232.409,31.638 232.626,32.093 232.721 C 35.047 233.337,37.480 236.548,38.383 241.026 C 39.775 247.921,41.287 248.869,48.470 247.344 L 50.455 246.923 50.355 244.967 C 49.743 232.989,45.071 226.585,34.574 223.332 C 32.277 222.620,25.241 222.115,23.656 222.548 M263.358 224.475 C 247.158 226.873,238.996 244.840,243.891 267.328 C 247.496 283.892,263.661 291.935,277.585 284.093 C 285.479 279.647,291.566 267.628,286.518 266.456 C 282.299 265.476,281.768 265.687,279.380 269.296 C 269.321 284.499,253.453 278.635,252.124 259.222 C 251.728 253.442,249.272 254.094,271.440 254.094 C 292.741 254.094,290.819 254.354,290.819 251.478 C 290.819 239.798,284.512 228.580,276.574 226.140 C 276.129 226.003,275.616 225.783,275.434 225.652 C 274.666 225.097,268.914 223.961,267.185 224.023 C 266.627 224.043,264.905 224.247,263.358 224.475 M75.269 224.851 C 65.743 227.146,59.298 232.035,56.565 239.041 C 55.540 241.667,55.289 242.556,55.452 242.980 C 55.784 243.847,64.904 246.248,65.493 245.624 C 65.647 245.460,66.224 244.258,66.774 242.952 C 69.522 236.431,73.355 233.525,78.558 234.018 C 85.219 234.650,88.619 238.206,90.318 246.319 C 90.547 247.411,90.864 248.825,91.023 249.462 C 91.519 251.454,91.394 255.749,90.839 255.749 C 90.577 255.749,88.754 254.941,86.786 253.955 C 79.560 250.331,76.065 249.712,70.968 251.154 C 63.231 253.343,59.848 255.316,57.012 259.290 C 49.940 269.200,53.505 282.235,64.511 286.707 C 71.602 289.588,78.208 288.940,85.551 284.641 L 88.702 282.796 90.466 284.603 C 91.772 285.940,92.606 286.501,93.675 286.759 C 97.381 287.655,98.113 287.783,98.316 287.572 C 98.987 286.876,99.586 280.176,99.586 273.372 C 99.586 269.370,99.746 265.293,99.942 264.313 C 100.439 261.820,100.442 252.089,99.947 249.297 C 97.257 234.132,95.447 230.961,87.190 226.946 C 81.854 224.352,79.245 223.893,75.269 224.851 M183.085 224.698 C 172.568 225.904,162.590 234.279,162.331 242.116 C 162.277 243.771,162.008 243.617,167.653 245.166 C 170.954 246.072,171.650 246.032,172.071 244.913 C 175.224 236.525,180.459 232.834,187.021 234.373 C 192.997 235.775,195.469 238.807,196.638 246.170 C 198.132 255.575,198.113 255.820,195.936 254.894 C 183.680 249.684,181.640 249.430,173.608 252.122 C 164.239 255.260,160.412 260.658,160.347 270.825 L 160.314 276.142 161.361 278.269 C 166.562 288.834,180.556 291.413,192.759 284.054 C 195.247 282.554,195.468 282.572,196.994 284.398 C 199.980 287.969,204.224 288.278,205.465 285.013 C 205.628 284.585,205.917 279.649,206.106 274.044 C 206.296 268.440,206.624 262.188,206.834 260.151 C 207.608 252.654,205.626 240.948,202.610 235.209 C 199.206 228.732,190.197 223.882,183.085 224.698 M313.813 225.296 C 303.462 228.029,298.536 234.033,296.159 246.816 C 295.972 247.816,295.639 249.529,295.417 250.620 C 294.934 252.998,294.956 259.558,295.454 261.869 C 298.661 276.743,303.366 283.360,312.958 286.488 C 315.505 287.318,320.892 287.437,323.242 286.715 C 334.333 283.307,341.770 276.855,341.770 270.642 C 341.770 268.247,338.931 266.005,335.898 266.005 C 334.544 266.005,334.896 265.592,330.551 272.291 C 324.591 281.481,313.406 280.217,307.937 269.736 C 303.483 261.199,303.198 249.117,307.261 241.144 C 312.207 231.437,326.519 231.959,331.210 242.018 C 332.386 244.540,332.702 245.461,333.515 248.746 L 333.870 250.181 335.587 249.962 C 337.702 249.693,342.686 248.200,342.962 247.753 C 343.404 247.037,341.576 241.437,339.524 237.221 C 336.362 230.727,331.589 227.381,322.250 225.114 C 319.734 224.503,316.558 224.572,313.813 225.296 M136.228 233.299 C 137.693 233.754,137.678 233.842,134.671 242.184 L 133.658 244.996 134.546 245.716 C 135.830 246.758,137.935 247.645,138.263 247.284 C 138.415 247.117,139.324 245.492,140.284 243.672 C 142.911 238.694,142.714 238.800,144.153 241.606 C 146.421 246.031,147.410 255.604,146.202 261.431 C 144.683 268.750,143.244 271.987,140.118 275.113 C 131.072 284.159,120.222 279.307,117.163 264.847 C 115.477 256.875,115.983 247.769,118.460 241.483 C 120.825 235.485,129.858 231.324,136.228 233.299 M271.528 234.343 C 273.420 234.844,276.533 236.833,277.846 238.379 C 279.342 240.140,281.677 245.513,281.166 246.017 C 279.743 247.420,253.269 247.405,251.826 246.000 C 251.202 245.394,253.622 240.769,255.822 238.362 C 259.367 234.483,265.817 232.832,271.528 234.343 M80.397 260.123 C 84.970 261.498,90.994 265.775,91.481 267.991 C 92.493 272.598,78.951 280.587,72.138 279.401 C 68.301 278.734,65.476 277.082,64.292 274.816 C 63.443 273.189,62.897 270.587,63.225 269.725 C 63.389 269.293,63.524 268.507,63.524 267.978 C 63.524 261.912,72.482 257.742,80.397 260.123 M186.336 260.177 C 193.501 262.050,198.332 266.122,197.628 269.695 C 196.852 273.632,184.488 280.059,178.818 279.474 C 173.055 278.879,169.882 275.371,169.926 269.644 C 169.987 261.731,176.939 257.721,186.336 260.177 " stroke="none" fill="#050505" fill-rule="evenodd"></path><path id="path2" d="M0.000 165.426 L 0.000 330.852 200.000 330.852 L 400.000 330.852 400.000 165.426 L 400.000 0.000 200.000 0.000 L 0.000 0.000 0.000 165.426 M265.509 8.728 C 272.209 10.495,275.311 14.626,276.462 23.314 C 276.948 26.979,276.912 99.239,276.418 112.960 C 276.286 116.614,276.347 118.539,276.616 119.246 C 277.149 120.645,284.239 135.044,294.802 156.176 C 304.525 175.629,305.485 177.909,305.466 181.495 C 305.439 186.363,301.437 191.169,296.692 192.030 C 294.510 192.426,91.947 192.295,90.168 191.897 C 86.443 191.062,83.682 188.401,82.238 184.254 C 80.986 180.659,81.803 177.796,86.949 167.742 C 91.070 159.690,94.684 152.401,97.284 146.898 C 98.445 144.442,101.323 138.635,103.679 133.995 C 106.035 129.355,108.392 124.703,108.916 123.657 C 111.300 118.902,111.166 122.156,111.166 68.975 C 111.166 38.416,111.286 20.635,111.499 19.513 C 112.568 13.871,116.788 9.866,122.911 8.681 C 124.919 8.292,264.031 8.338,265.509 8.728 M132.837 24.589 C 126.644 25.224,127.213 21.074,127.213 65.674 C 127.213 107.821,127.039 104.979,129.694 106.270 C 130.928 106.871,253.415 107.277,256.576 106.691 C 261.179 105.838,261.042 107.089,261.042 65.696 C 261.042 23.526,261.260 25.266,255.914 24.670 C 253.007 24.346,135.957 24.269,132.837 24.589 M125.079 128.056 C 120.374 128.693,118.407 131.424,120.321 134.664 C 122.133 137.731,133.894 137.820,136.282 134.784 C 139.630 130.528,133.597 126.905,125.079 128.056 M147.471 128.064 C 143.754 128.484,141.682 130.361,142.070 132.955 C 142.539 136.088,144.031 136.792,150.221 136.800 C 156.565 136.809,158.114 135.948,158.136 132.398 C 158.158 128.832,154.351 127.285,147.471 128.064 M169.054 128.046 C 164.777 128.553,163.196 129.943,163.530 132.905 C 163.891 136.107,165.427 136.787,172.315 136.799 L 177.715 136.807 179.015 135.414 C 183.311 130.809,178.123 126.972,169.054 128.046 M257.403 127.924 C 252.184 128.419,250.082 130.341,251.088 133.699 C 252.354 137.923,264.591 138.360,266.698 134.256 C 268.553 130.644,264.260 127.079,258.892 127.772 C 258.710 127.796,258.040 127.864,257.403 127.924 M190.240 128.494 C 189.421 128.731,188.030 129.244,187.150 129.635 L 185.548 130.345 185.772 131.756 C 186.443 135.974,187.789 136.811,193.879 136.797 C 201.059 136.781,204.023 134.228,201.394 130.322 C 200.005 128.258,194.294 127.323,190.240 128.494 M210.131 128.494 C 207.695 129.376,206.563 131.995,207.658 134.220 C 209.593 138.151,219.269 138.037,223.573 134.031 C 225.328 132.398,225.326 132.362,223.363 130.718 C 220.275 128.133,214.031 127.084,210.131 128.494 M232.369 128.799 C 231.611 129.200,230.288 130.171,229.428 130.957 L 227.866 132.385 229.152 133.713 C 233.035 137.724,241.597 138.221,245.175 134.643 C 246.275 133.543,246.079 130.961,244.815 129.897 C 242.492 127.942,235.202 127.299,232.369 128.799 M118.012 146.364 C 113.484 147.105,112.180 151.756,116.034 153.417 C 119.235 154.797,129.986 154.015,131.330 152.305 C 134.867 147.809,127.971 144.733,118.012 146.364 M142.278 146.435 C 139.824 147.095,136.311 149.088,136.311 149.822 C 136.311 150.416,138.648 152.334,140.604 153.346 C 144.499 155.360,155.170 153.090,155.170 150.248 C 155.170 147.338,147.433 145.050,142.278 146.435 M166.155 146.275 C 163.086 146.786,159.280 149.557,159.996 150.760 C 162.379 154.763,174.675 155.054,178.171 151.191 C 180.749 148.342,172.937 145.146,166.155 146.275 M190.656 146.377 C 187.812 146.938,183.963 149.553,184.380 150.641 C 184.742 151.584,189.974 153.860,192.225 154.053 C 197.980 154.548,204.825 151.522,202.809 149.376 C 200.210 146.610,195.444 145.434,190.656 146.377 M213.311 146.528 C 204.874 148.728,207.885 153.960,217.602 153.984 C 223.250 153.998,228.175 151.379,226.292 149.363 C 223.528 146.405,218.224 145.247,213.311 146.528 M237.717 146.365 C 234.867 146.843,232.838 147.947,232.038 149.455 L 231.431 150.598 232.564 151.550 C 237.088 155.352,247.731 154.821,249.698 150.695 C 251.148 147.656,244.452 145.236,237.717 146.365 M260.081 146.382 C 256.217 147.021,254.715 149.335,256.386 152.075 C 258.016 154.749,271.212 154.916,273.279 152.289 C 276.774 147.845,269.885 144.762,260.081 146.382 M108.850 164.408 C 100.047 165.638,100.758 173.040,109.790 174.199 C 116.399 175.047,120.245 174.204,122.914 171.321 C 125.084 168.978,125.109 168.778,123.413 167.327 C 120.216 164.590,115.014 163.548,108.850 164.408 M135.782 164.422 C 132.034 164.846,130.657 165.981,130.447 168.815 C 130.122 173.219,131.887 174.199,140.116 174.180 C 146.941 174.164,148.295 173.785,149.334 171.596 C 151.926 166.135,146.413 163.216,135.782 164.422 M243.469 164.427 C 235.450 165.432,235.128 172.840,243.051 174.086 C 249.962 175.173,255.953 173.971,257.751 171.136 C 260.706 166.476,253.632 163.153,243.469 164.427 M270.051 164.429 C 265.597 164.926,263.577 167.832,265.194 171.417 C 266.291 173.849,267.457 174.197,274.442 174.175 C 282.203 174.150,283.665 173.519,284.345 169.897 C 285.176 165.465,279.664 163.357,270.051 164.429 M160.345 164.770 C 156.635 165.895,156.135 171.734,159.587 173.624 C 160.814 174.295,226.291 174.394,228.046 173.727 C 230.988 172.608,231.411 167.877,228.789 165.426 L 227.904 164.599 194.597 164.541 C 176.278 164.510,160.865 164.613,160.345 164.770 M227.390 206.255 C 231.094 206.817,230.744 205.933,230.935 215.195 C 231.142 225.252,230.666 224.477,236.471 224.214 C 240.800 224.019,240.857 224.025,241.002 224.746 C 241.253 225.994,241.626 229.705,241.657 231.266 L 241.687 232.754 236.180 232.845 C 232.140 232.911,230.576 233.051,230.313 233.368 C 230.063 233.668,229.927 241.677,229.865 259.639 C 229.761 290.171,230.204 287.283,225.593 287.440 C 222.951 287.529,222.757 287.488,221.988 286.669 L 221.175 285.803 221.009 259.444 L 220.844 233.085 214.998 232.920 C 208.071 232.724,208.622 233.100,208.622 228.567 C 208.622 223.790,208.345 223.987,215.076 223.987 C 218.908 223.987,220.359 223.875,220.620 223.560 C 220.843 223.292,221.011 220.233,221.074 215.315 C 221.206 205.074,221.053 205.293,227.390 206.255 M357.332 206.292 C 357.866 206.568,358.376 207.127,358.466 207.533 C 359.262 211.146,359.371 213.528,359.287 225.476 C 359.145 245.789,359.214 249.036,359.776 248.458 C 360.035 248.192,361.244 246.038,362.464 243.672 C 373.712 221.856,386.864 223.001,389.071 245.988 C 389.364 249.042,389.555 250.410,390.457 255.914 C 390.635 257.006,390.902 261.621,391.049 266.170 C 391.197 270.720,391.500 276.824,391.724 279.735 C 391.948 282.647,392.153 285.550,392.178 286.187 L 392.225 287.345 387.262 287.345 L 382.299 287.345 382.102 276.096 C 381.920 265.717,381.622 261.098,380.800 255.914 C 380.626 254.822,380.482 253.110,380.479 252.109 C 380.467 247.951,379.478 242.585,378.211 239.805 C 377.309 237.825,377.060 237.693,375.759 238.499 C 373.020 240.198,370.324 244.243,367.240 251.282 C 366.563 252.828,363.107 263.824,362.301 266.998 C 362.139 267.634,361.852 268.751,361.662 269.479 C 361.473 270.207,361.229 271.323,361.121 271.960 C 360.316 276.718,359.810 280.104,359.391 283.540 C 359.012 286.653,359.256 286.518,354.004 286.518 C 349.763 286.518,349.376 286.467,349.054 285.865 C 348.441 284.721,348.756 209.602,349.380 207.950 C 350.174 205.845,354.659 204.910,357.332 206.292 M148.906 213.648 C 152.016 215.621,155.500 218.300,155.500 218.719 C 155.500 219.094,154.643 220.477,151.169 225.703 C 147.514 231.201,147.690 230.523,149.277 232.965 C 152.177 237.428,153.705 241.455,155.138 248.412 C 155.578 250.552,155.616 257.904,155.197 259.820 C 155.030 260.583,154.718 262.101,154.505 263.193 C 152.084 275.570,148.137 281.711,139.950 285.842 C 135.848 287.912,134.235 288.274,130.220 288.027 C 128.202 287.904,126.175 287.788,125.716 287.770 C 122.475 287.647,119.783 291.613,119.773 296.526 C 119.768 299.323,120.055 299.598,122.152 298.802 C 122.570 298.643,123.507 298.328,124.235 298.101 C 124.963 297.875,127.680 296.296,130.272 294.592 C 140.667 287.762,146.061 286.994,152.280 291.461 C 162.066 298.488,156.957 315.197,143.755 319.346 C 136.937 321.488,131.576 322.087,125.062 321.434 C 121.400 321.066,121.038 320.752,121.582 318.414 C 122.473 314.578,123.630 313.983,130.852 313.644 C 133.581 313.516,136.266 313.261,136.817 313.077 C 139.692 312.119,143.098 309.922,145.492 307.479 L 147.229 305.706 147.229 303.182 C 147.229 299.743,146.029 298.428,142.891 298.428 C 140.490 298.428,139.581 298.860,134.021 302.641 C 124.468 309.138,118.069 309.804,113.015 304.826 C 108.248 300.130,108.946 294.395,115.181 287.028 C 117.944 283.765,117.947 284.104,115.118 280.373 C 111.555 275.673,109.740 271.872,108.890 267.328 C 108.703 266.328,108.383 264.615,108.179 263.524 C 107.738 261.165,107.948 246.939,108.465 244.169 C 109.598 238.095,111.108 234.847,114.549 231.081 C 120.324 224.763,128.050 222.686,136.774 225.107 C 140.603 226.169,140.466 226.235,141.564 222.829 C 143.612 216.480,145.514 212.076,146.208 212.076 C 146.330 212.076,147.544 212.783,148.906 213.648 M33.416 222.701 C 42.676 225.843,46.357 228.811,48.602 234.944 C 49.621 237.729,50.664 243.305,50.554 245.388 L 50.455 247.278 48.139 247.682 C 43.593 248.476,40.411 248.025,39.683 246.485 C 39.019 245.080,38.735 244.227,38.583 243.176 C 37.447 235.325,34.392 232.258,27.707 232.258 C 23.107 232.258,19.455 234.518,17.608 238.509 C 14.555 245.103,18.700 250.027,29.611 252.767 C 41.236 255.686,45.062 258.700,47.174 266.600 C 50.916 280.599,34.673 291.317,18.528 285.501 C 13.726 283.771,8.965 278.154,7.331 272.291 C 7.153 271.654,6.845 270.602,6.647 269.952 C 5.631 266.625,6.496 265.916,11.635 265.867 C 15.311 265.832,15.819 266.193,17.912 270.333 C 21.307 277.046,25.712 279.134,32.372 277.189 C 35.403 276.304,39.470 270.607,38.128 269.128 C 37.808 268.775,37.049 267.852,36.442 267.076 C 34.628 264.758,32.908 263.997,23.160 261.204 C 20.349 260.398,18.689 259.777,16.281 258.630 C 7.822 254.601,3.644 241.985,8.040 233.747 C 8.234 233.383,8.583 232.713,8.815 232.258 C 10.659 228.643,18.619 223.318,23.821 222.220 C 25.193 221.930,32.176 222.280,33.416 222.701 M83.355 224.938 C 83.981 225.137,85.916 226.008,87.656 226.874 C 94.286 230.175,97.789 235.111,99.107 243.011 C 99.881 247.652,100.919 256.970,100.726 257.538 C 100.375 258.567,99.793 267.538,99.564 275.434 C 99.422 280.347,99.182 285.112,99.031 286.022 L 98.757 287.676 96.939 287.590 C 93.771 287.439,92.377 286.856,90.434 284.869 C 88.763 283.160,88.618 283.082,87.920 283.525 C 79.982 288.561,73.788 289.815,66.832 287.793 C 48.726 282.532,48.620 258.436,66.676 252.182 C 74.975 249.307,78.746 249.605,87.104 253.796 C 91.207 255.854,91.315 255.853,91.315 253.776 C 91.315 251.620,89.578 243.422,88.716 241.512 C 83.894 230.822,70.743 231.963,66.759 243.416 C 65.817 246.123,65.644 246.201,62.035 245.519 C 55.631 244.310,54.739 243.520,55.935 240.119 C 59.682 229.467,73.517 221.807,83.355 224.938 M274.505 225.067 C 283.089 228.047,288.501 234.628,290.213 244.169 C 290.534 245.959,290.977 254.022,290.763 254.170 C 290.703 254.212,282.018 254.324,271.464 254.418 L 252.275 254.591 252.164 256.907 C 251.783 264.933,255.551 273.298,260.742 275.946 C 267.793 279.543,273.663 277.312,279.411 268.849 L 281.343 266.005 283.517 266.010 C 289.505 266.024,290.180 267.966,286.628 274.961 C 281.190 285.672,267.337 290.359,256.586 285.125 C 244.688 279.333,239.355 261.685,243.910 243.176 C 246.198 233.876,250.884 228.291,258.892 225.319 C 263.225 223.711,270.269 223.597,274.505 225.067 M189.745 225.156 C 196.290 227.292,200.219 230.298,202.917 235.236 C 205.650 240.236,207.897 253.278,207.111 259.579 C 206.954 260.839,206.662 266.829,206.462 272.891 C 206.063 284.977,205.874 286.115,204.111 287.027 C 201.814 288.215,199.445 287.489,197.098 284.877 C 195.363 282.948,194.988 282.879,193.112 284.137 C 188.130 287.480,180.370 289.456,176.101 288.469 C 163.913 285.652,159.210 279.866,159.992 268.652 C 160.640 259.347,165.839 253.761,176.344 251.082 C 182.329 249.555,184.391 249.862,193.539 253.641 C 197.686 255.354,197.710 255.340,197.204 251.558 C 195.590 239.508,194.171 236.873,188.248 234.928 C 181.850 232.828,176.818 235.417,173.435 242.549 C 171.625 246.363,171.583 246.387,168.180 245.535 C 161.343 243.823,161.252 243.732,162.482 239.833 C 165.797 229.330,179.664 221.865,189.745 225.156 M321.524 224.681 C 333.686 227.527,339.061 232.424,342.309 243.619 C 342.581 244.558,342.959 245.827,343.149 246.438 C 343.699 248.214,340.723 249.646,335.255 250.237 L 333.869 250.387 333.353 248.873 C 333.069 248.041,332.837 247.022,332.837 246.611 C 332.837 246.199,332.688 245.770,332.506 245.658 C 332.324 245.545,332.175 245.223,332.175 244.941 C 332.175 241.931,327.265 236.327,323.739 235.313 C 316.124 233.122,310.272 235.371,307.189 241.672 C 305.480 245.166,304.904 248.379,304.904 254.425 C 304.905 273.399,316.357 283.680,327.981 275.142 C 328.506 274.757,329.414 273.697,329.999 272.787 C 330.585 271.878,331.864 269.890,332.842 268.370 L 334.620 265.606 336.258 265.823 C 348.869 267.496,339.335 282.734,322.978 287.048 C 316.817 288.673,309.818 286.647,303.938 281.538 C 301.621 279.524,298.702 274.265,297.152 269.313 C 294.821 261.862,294.180 255.819,295.174 250.640 C 297.548 238.260,299.325 234.090,304.030 229.860 C 308.456 225.881,316.489 223.503,321.524 224.681 M129.693 233.388 C 127.000 233.979,123.024 236.018,121.306 237.687 C 113.630 245.147,115.508 272.321,124.028 277.081 C 129.491 280.133,131.055 280.235,136.232 277.876 C 145.274 273.757,149.868 252.339,143.973 241.783 C 142.714 239.530,142.683 239.547,140.554 243.672 C 138.197 248.239,138.184 248.247,135.757 246.743 C 133.322 245.234,133.338 245.410,135.180 240.154 C 137.380 233.873,137.382 233.828,135.506 233.327 C 133.677 232.837,132.124 232.853,129.693 233.388 M263.781 234.392 C 258.581 235.574,255.550 237.977,253.092 242.865 C 251.999 245.038,251.874 245.490,252.273 245.821 C 253.802 247.090,279.474 247.063,280.731 245.791 C 281.236 245.280,280.381 242.998,278.481 239.779 C 275.894 235.397,269.564 233.077,263.781 234.392 M70.910 260.374 C 66.103 261.712,64.476 263.582,63.567 268.817 C 62.734 273.613,66.572 278.899,70.895 278.910 C 71.299 278.911,72.216 279.075,72.932 279.273 C 73.875 279.535,74.582 279.535,75.496 279.272 C 76.190 279.072,77.390 278.732,78.164 278.518 C 83.945 276.912,91.318 271.503,91.313 268.873 C 91.302 263.595,78.501 258.262,70.910 260.374 M177.033 260.244 C 172.470 261.471,170.056 264.701,170.060 269.574 C 170.064 274.900,171.817 277.118,177.438 278.910 L 179.691 279.628 182.567 278.883 C 189.413 277.109,195.538 273.554,196.979 270.515 C 199.689 264.805,186.099 257.807,177.033 260.244 " stroke="none" fill="none" fill-rule="evenodd"></path></g></svg>
